<svg xmlns="http://www.w3.org/2000/svg" xmlns:xlink="http://www.w3.org/1999/xlink" width="569" height="430" viewBox="0 0 569 430"><defs><path id="n7twa" d="M806.145 3421.198c8.997 35.066 28.047 65.377 58.154 80.068 62.593 30.537 203.67 14.786 308.977-3.289 54.485-9.352 102.342-35.14 137.128-71.48z"/><path id="n7twb" d="M1358.38 3256.148h-57.779c-2.75 0-4.998-2.05-4.998-4.554 0-2.504 2.244-4.554 4.998-4.554h9.997c-2.749 0-4.998-2.05-4.998-4.554 0-2.504 2.244-4.548 4.998-4.548h-7.133c-2.749 0-4.998-2.05-4.998-4.554 0-2.504 2.244-4.554 4.998-4.554h30.157c-6.693-2.84-14.496-4.854-23.523-5.908-82.233-9.633-111.595-3.264-121.967 3.289a121.022 121.022 0 0 1-42.264 16.89c-50.736 9.543-145.62 21.025-231.622-3.679-42.744-12.271-74.51 8.498-93.555 43.144h547.722c-.715-10.078-2.854-19.385-6.783-27.528a5.239 5.239 0 0 1-3.25 1.11z"/><path id="n7twc" d="M1001.872 3391.651h-9.997c2.744 0 4.998 2.05 4.998 4.554 0 2.504-2.25 4.549-4.998 4.549H934.12c-2.744 0-4.998-2.045-4.998-4.55 0-2.503 2.249-4.553 4.998-4.553h9.998c-2.745 0-5-2.05-5-4.554 0-2.504 2.25-4.553 5-4.553h-7.144c-2.744 0-4.998-2.045-4.998-4.55 0-2.504 2.25-4.553 4.998-4.553h57.78c2.75 0 4.998 2.05 4.998 4.554 0 2.504-2.244 4.549-4.998 4.549h7.118c2.75 0 4.999 2.049 4.999 4.553 0 2.505-2.235 4.554-5 4.554zm-200.63-43.643a211.913 211.913 0 0 0 2.244 61.178l507.302 16.916a216.518 216.518 0 0 0 35.246-48.987z"/><path id="n7twd" d="M913.77 3323.125h-9.997c2.745 0 5 2.05 5 4.553 0 2.505-2.25 4.554-5 4.554H846c-2.744 0-4.999-2.05-4.999-4.554 0-2.504 2.25-4.553 4.999-4.553h9.997c-2.744 0-4.998-2.045-4.998-4.55 0-2.503 2.25-4.553 4.998-4.553h-7.143c-2.744 0-4.998-2.05-4.998-4.554 0-2.504 2.249-4.553 4.998-4.553h57.78c2.749 0 4.998 2.049 4.998 4.553 0 2.505-2.244 4.554-4.998 4.554h7.138c2.744 0 4.998 2.05 4.998 4.554 0 2.504-2.254 4.549-4.998 4.549zm454.668-40.245l-553.85 12.282c-6.749 15.79-11.212 33.641-13.272 52.146h557.415a199.44 199.44 0 0 0 8.047-33.236c1.66-10.877 2.325-21.394 1.66-31.192z"/><path id="n7twe" d="M1094.482 3592.867c0-4.663 16.836-8.443 37.605-8.443 20.768 0 37.605 3.78 37.605 8.443 0 4.662-16.837 8.442-37.605 8.442-20.769 0-37.605-3.78-37.605-8.442z"/><path id="n7twf" d="M1151.626 3619.68c0-3.076 30.374-5.569 67.842-5.569s67.842 2.493 67.842 5.568c0 3.076-30.374 5.569-67.842 5.569s-67.842-2.493-67.842-5.569z"/><path id="n7twg" d="M879.235 3611.237c0-4.663 30.374-8.443 67.842-8.443s67.841 3.78 67.841 8.443-30.373 8.442-67.841 8.442c-37.468 0-67.842-3.78-67.842-8.442z"/><path id="n7twh" d="M999.468 3568.973c0-4.663 22.854-8.443 51.046-8.443s51.046 3.78 51.046 8.443-22.854 8.443-51.046 8.443-51.046-3.78-51.046-8.443z"/><path id="n7twi" d="M1023.901 3639.294c0-4.663 18.295-8.443 40.864-8.443 22.568 0 40.864 3.78 40.864 8.443s-18.296 8.443-40.864 8.443c-22.569 0-40.864-3.78-40.864-8.443z"/><path id="n7twj" d="M1012.124 3371.547s2.45 30.636 0 35.055c-.695 1.26-1.28 3.5-1.764 6.053-.81-2.124-2.525-7.113-1.91-9.757.795-3.419-1.584-12.402-1.584-12.612 0-.21-.215-4.998 1.5-8.657 1.714-3.66.589-5.244.589-5.244s1.44-5.998 3.17-4.838zm62.038 6.688l.025-.045c.5 9.702-.095 30.407-.095 30.407s-.67 2.654-1.384 5.778l-.5-19.67-.5-18.53zm14.496-10.113c-1.08-7.268-7.682-24.228-7.682-24.228-.115-.5-.245-1-.39-1.5-4.684-16.095-11.167-17.495-11.167-17.495l-23.224-4.998a1.8 1.8 0 0 1 .5.464c-.123.012-.245.03-.365.055a9.097 9.097 0 0 1-2.035-4.398c-.045-.24-.085-.5-.114-.745a16.336 16.336 0 0 0-2.075-25.108c1.095-1.165 1.13-2.785.31-4.404-1.83-3.8-5.808-6.204-9.897-7.378-3.124-.895-6.499-1.185-9.608-.205-1.764.56-3.374 1.5-5.028 2.334-3.085 1.54-6.499 2.76-8.803 5.294-.54.59-1.04 1.344-.88 2.124.12.58.58 1.03.875 1.545.665 1.154.5 2.609.045 3.869-.455 1.26-1.12 2.429-1.435 3.719-.315 1.29-.195 2.809.775 3.734.465.359.95.692 1.45 1 .53.452.996.975 1.384 1.554.92 1.233 1.837 2.471 2.75 3.714a38.26 38.26 0 0 1 3.444 5.234c.685 1.35 1.214 2.789 2.13 3.998.267.354.574.676.914.96l-.27-.105a4.164 4.164 0 0 0 3.054 1.245h.14a.84.84 0 0 0 .56-.23v.5c.055 1.784.045 3.684-.08 5.468l-.215-.11a1.874 1.874 0 0 0-2 .21l-21.379 17.156s-4.648 6.358-3.999 17.335l-3.749 16.46s-4.683 13.967-1.08 23.94a4251.025 4251.025 0 0 0 5.694 15.675s1.44 11.332 3.604 12.257c2.165.924 3.1 1.424 3.1 1.424l.43 2.71s.144.264.4.71c1.574 2.739 7.407 12.406 10.796 11.371a43.34 43.34 0 0 1 .55 7.943l3.354 22.519s2.34 6.123 2.195 9.332c-.145 3.21 2.729 7.783 2.729 7.783a14.871 14.871 0 0 0-1.44 10.473c1.37 5.998 3.1 33.63 3.1 33.63l2.499 6.699-.07 7.852a7.498 7.498 0 0 1-1.55 3.5c-1.62 1.759-1.5 3.794-5.403 6.198-3.904 2.404-6.379 3.314-6.379 6.498a8.359 8.359 0 0 1-.12 1.325c-.36 2.34-1.06 3.609 6.119 4.289 8.432.8 14.056-4.7 14.056-4.7s1.24-2.249 7.078-3.158c0 0 2-.105 2.104-1.87.04-.61.03-1.774 0-3.059-.095-2.444-.33-5.298-.64-5.438-.39-.175-1.07-2.635-1.304-3.525h1.625s1.5-11.331 0-18.67c-1.5-7.337-.145-12.541-.145-12.541l-.29-19.38s-2-2.14-.43-5.918c1.57-3.78 0-22.444 0-22.444s.58-6.698 2.234-8.268c1.655-1.57.08-9.812 0-10.242l2.95 9.892s1.294 19.665 4.038 23.224l.79 8.907s5.619 8.198 4.539 12.612 1.155 20.38 1.155 20.38v16.32s-2.525 6.553 1 8.908l1.499-.06c-.5.465-.885 1.164-1.47 1.77-.675.694-1.06 3.338-1.274 5.613-.18 1.924-.24 3.579-.24 3.579s1.5 2.4 4.324 2.564c2.824.165 12.131 7.243 12.131 7.243s9.193 0 11.572-.5l.14-.035a3.124 3.124 0 0 0 1.795-1.464c.476-.813.63-1.774.43-2.695-.296-1.404-1.41-2.944-3.88-4.254-6.143-3.239-7.058-6.273-7.058-6.273l-4.034-6.053h.575s-.355-6.413 4.034-13.612l-.285-31.706s1.8-10.902-1.294-16.82c0 0-.255-6.269 1.814-8.193 2.07-1.925-2.754-21.374-2.754-21.374s-1-10.443-2.174-19.97c4.863 4.614 9.907-11.997 10.757-14.951h.125l-.055-.215c.035-.14.055-.21.055-.21s-1.08-3.839-.29-3.059c.79.78 2.739-2.14 2.739-2.14s-.29-15.89 3.1-23.898c3.388-8.008-1.506-27.513-1.506-27.513z"/><path id="n7twl" d="M1018.093 3440.548c-2.135 9.382-10.623-4.804-12.557-8.208-.25-.445-.39-.705-.39-.705l.92-4.314 4.863-1.999c.77.402 1.5.878 2.18 1.42 2.664 2.094 6.628 6.538 4.984 13.806z"/><path id="n7twm" d="M1083.94 3425.197s0 .07-.055.21c0 .06-.04.14-.065.225-.835 2.93-5.784 19.42-10.562 14.84-5.229-4.998-2.69-16.555-2.69-16.555h.035l10.997-1.124 2.18 2.24z"/><path id="n7twn" d="M1077.576 3506.35l.28 31.492c-4.313 7.148-3.959 13.496-3.959 13.496l-14.216.56c-3.469-2.335-1-8.838-1-8.838v-16.215s-2.194-15.841-1.134-20.23c1.06-4.389-4.454-12.497-4.454-12.497l-.78-8.842c-2.689-3.534-3.964-23.054-3.964-23.054l-2.884-9.857c.08.425 1.58 8.652 0 10.167-1.58 1.515-2.194 8.203-2.194 8.203s1.554 18.535 0 22.279c-1.555 3.744.42 5.873.42 5.873l.285 19.24s-1.345 5.164.14 12.447c1.484 7.283 0 18.535 0 18.535h-15.251l.07-7.853-2.47-6.648s-1.7-27.443-3.044-33.386a14.916 14.916 0 0 1 1.41-10.398s-2.825-4.523-2.685-7.708c.14-3.184-2.179-9.257-2.179-9.257l-3.29-22.35a43.417 43.417 0 0 0-1.629-12.73c-1.91-6.369-4.738-14.717-4.738-14.717l3.194.285 16.115 1.435s39.185-2.634 40.94-.445c.37.716.62 1.488.74 2.284 1.759 7.903 4.083 32.662 4.083 32.662s4.739 19.31 2.704 21.219c-2.034 1.91-1.784 8.128-1.784 8.128 3.049 5.873 1.274 16.72 1.274 16.72z"/><path id="n7two" d="M1044.45 3561.05c-.11 1.755-2.064 1.86-2.064 1.86-5.728.9-6.948 3.129-6.948 3.129s-5.499 5.463-13.791 4.669c-7.049-.68-6.364-1.935-5.999-4.26.071-.432.11-.87.115-1.309 0-3.184 2.44-4.089 6.258-6.498 3.82-2.41 3.714-4.404 5.304-6.153 1.59-1.75 1.755-5.144 1.755-5.144 1.8-3.134 6.363.5 6.363.5.215 1.11 6.998.955 6.998.955s.9 3.609 1.365 3.819c.304.14.534 2.969.624 5.398.05 1.275.06 2.43.02 3.034z"/><path id="n7twp" d="M1044.45 3561.05c-.11 1.755-2.064 1.86-2.064 1.86-5.728.9-6.948 3.129-6.948 3.129s-5.499 5.463-13.791 4.669c-7.049-.68-6.364-1.935-5.999-4.26 3.15.78 9.168 1.87 12.682-.04a926.24 926.24 0 0 1 8.387-4.498l7.718-3.884c.045 1.265.055 2.42.015 3.024z"/><path id="n7twq" d="M1087.624 3570.493a3.05 3.05 0 0 1-1.76 1.454l-.135.035c-2.334.5-11.357.5-11.357.5s-9.122-7.053-11.881-7.213c-2.76-.16-4.244-2.55-4.244-2.55s.055-1.639.23-3.548c.215-2.26.59-4.884 1.254-5.574 1.22-1.274 1.5-2.999 4.244-1.91 0 0 3.92-6.907 8.538-1.569l4.779 7.248s.9 3 6.953 6.254c2.419 1.3 3.499 2.829 3.804 4.223.192.906.04 1.85-.425 2.65z"/><path id="n7twr" d="M1087.624 3570.493c-.54.455-1.135.945-1.76 1.454l-.135.035c-2.334.5-11.357.5-11.357.5s-9.122-7.053-11.881-7.213c-2.76-.16-4.244-2.55-4.244-2.55s.055-1.639.23-3.548c2.809.84 7.063 2.324 8.202 3.924 1.75 2.434 7.063 5.833 7.063 5.833s9.908-.955 14.307-1.085c.192.906.04 1.85-.425 2.65z"/><path id="n7tws" d="M1049.07 3323.664l-13.047 13.792s-15.811-1.165-13.052-5.834c1.405-2.379 1.625-7.358 1.5-11.687-.115-4.173-.545-7.727-.545-7.727s22.174-11.037 20.494-.745a16.94 16.94 0 0 0-.06 5.873c.945 5.199 4.71 6.328 4.71 6.328z"/><path id="n7twt" d="M1044.4 3311.463a16.94 16.94 0 0 0-.06 5.873 16.276 16.276 0 0 1-11.606 4.844c-3 0-6.244-2.464-8.668-3.89-.115-4.178-.14-6.082-.14-6.082s22.174-11.037 20.474-.745z"/><path id="n7twu" d="M1049.07 3304.99a16.34 16.34 0 1 1-32.682.011 16.34 16.34 0 0 1 32.681-.011z"/><path id="n7twv" d="M1071.298 3427.621c-4.069 9.683-30.242 9.883-30.242 9.883v-10.557l-1.584-.105c.685 3.024-.96 10.397-.96 10.397-20.684 2.919-25.728-8.868-25.728-8.868l.72-4.034 16.115 1.435s39.185-2.634 40.94-.445c.37.719.62 1.494.74 2.294z"/><path id="n7tww" d="M1041.056 3436.23v-10.558l-1.584-.1c.685 3-.96 10.397-.96 10.397-15.566 2.195-22.274-3.934-24.638-7.103a9.673 9.673 0 0 1-1.09-1.76l6.318-35.54 1.5-52.306 2.264-9.177.525-4.404v-.05h.055l1.61.69 9.632 4.164 10.942-8.263.16-.115.545-.415.905.725 2.25 1.804 7.212 46.583s12.497 35.865 14.836 50.341c.095.58.17 1.12.23 1.625 1.545 13.216-30.712 13.461-30.712 13.461z"/><path id="n7twx" d="M1034.928 3331.512a.93.93 0 1 1 1.86 0 .93.93 0 0 1-1.86 0z"/><path id="n7twy" d="M1035.358 3340a.93.93 0 1 1 1.86 0 .93.93 0 0 1-1.86 0z"/><path id="n7twz" d="M1036.288 3353.741a.93.93 0 1 1 1.86 0 .93.93 0 0 1-1.86 0z"/><path id="n7twA" d="M1037.822 3368.542a.93.93 0 1 1 1.86 0 .93.93 0 0 1-1.86 0z"/><path id="n7twB" d="M1038.752 3382.439a.93.93 0 1 1 1.86 0 .93.93 0 0 1-1.86 0z"/><path id="n7twC" d="M1039.682 3397.24a.93.93 0 1 1 1.86 0 .93.93 0 0 1-1.86 0z"/><path id="n7twD" d="M1039.312 3411.88a.93.93 0 1 1 1.86 0 .93.93 0 0 1-1.86 0z"/><path id="n7twE" d="M1024.01 3396.735s-1.039 13.611-2.948 17.57c-1.91 3.959-2.76 15.066-2.76 15.066l-4.433-.5a9.672 9.672 0 0 1-1.09-1.76l6.318-35.54 1.5-52.306 2.27-9.182.524-4.404.06-.025a1.79 1.79 0 0 1 1.58.025l.21.11c-.064.18-.124.365-.18.555-1.73 5.413-2.375 15.39-2.375 15.39s2.5 18.25 2.76 26.738c.26 8.488-1.435 28.263-1.435 28.263z"/><path id="n7twF" d="M1013.109 3426.757a2.56 2.56 0 0 1-.17.33c-1.72 2.904-6.078 4.748-7.403 5.253-.25-.445-.39-.705-.39-.705l.92-4.314 4.863-1.999c.771.407 1.501.888 2.18 1.435z"/><path id="n7twG" d="M1001.327 3357.295l-4.034 2.405-3.674 16.34s-4.599 13.862-1.065 23.764c3.534 9.902 5.589 15.57 5.589 15.57s1.415 11.248 3.539 12.167c2.124.92 3.04 1.415 3.04 1.415l.424 2.69s5.758-1.955 7.793-5.4c2.034-3.443-1.5-11.996-1.5-11.996s-3.039-7.288-2.26-10.682c.78-3.394-1.559-12.307-1.559-12.497 0-.19-.21-4.953 1.5-8.597 1.71-3.644.57-5.199.57-5.199l-1.065-10.397z"/><path id="n7twH" d="M1071.633 3424.562s-10.682 4.03-14.076.5c-3.394-3.529-3.044-20.09-3.044-20.09s-3.25-30.556-5.304-35.575c-2.054-5.019-1-41.239-1-41.239s-1.38-4.683-2.584-5.908a1.31 1.31 0 0 0-.255-.205l.415.09 1.45.31 2.25 1.804 7.212 46.583s12.497 35.865 14.836 50.341z"/><path id="n7twI" d="M1083.94 3425.622h-.12c-1.345.175-13.212 1.61-13.262-.86a7.246 7.246 0 0 1 .045-.855l10.997-1.124 2.18 2.24c.04.144.07.269.1.369z"/><path id="n7twJ" d="M1072.553 3340.93l7.798 4.069s6.498 16.825 7.538 24.038c0 0 4.813 19.325 1.5 27.273-3.315 7.948-3.04 23.723-3.04 23.723s-1.91 2.9-2.69 2.125c-.779-.775.286 3.039.286 3.039s-13.332 1.77-13.387-.85c-.055-2.619 3.06-15.136 3.06-15.136s.85-29.777-.355-34.445c-1.205-4.67-.71-33.836-.71-33.836z"/><path id="n7twK" d="M1049.284 3372.646s-4.389 10.747-5.803 11.457c-1.415.71.285 3.534.285 3.534s7.992-11.172 5.518-14.99z"/><path id="n7twL" d="M1046.665 3334.946c.05-.205-5.234 5.184-6.648 5.999-1.415.815 5.163-.05 6.648-5.999z"/><path id="n7twM" d="M1031.954 3371.796s-8.063 5.214-6.998 7.278c1.064 2.065 6.998-7.278 6.998-7.278z"/><path id="n7twN" d="M1046.595 3447.9s6.863 4.415 17.54 5.5z"/><path id="n7twO" d="M1030.114 3458.513s6.364 7.998 9.268 8.203c2.904.205-9.268-8.203-9.268-8.203z"/><path id="n7twP" d="M1039.027 3489.855c-.285.14-3.61 7.213-6.998 7.428-3.39.215 6.998-7.428 6.998-7.428z"/><path id="n7twQ" d="M1068.519 3505.35s6.308-1.414 7.713 3.11c0-.015-.425-1.43-7.713-3.11z"/><path id="n7twR" d="M1064.275 3531.223s7.643-1.56 9.268.565c1.624 2.125-9.268-.565-9.268-.565z"/><path id="n7twS" d="M1042.656 3534.842c0 .07-7.778 1.56-7.498 2.55.28.99 8.298.85 8.583-.71a1.5 1.5 0 0 0-1.085-1.84z"/><path id="n7twT" d="M1061.73 3541.55s12.782-1.559 11.998 1.13c-.785 2.69-11.997-1.13-11.997-1.13z"/><path id="n7twU" d="M994.819 3384.103c.07.21 8.418 1.345 9.547 4.034 0 0-8.203-3.824-9.497-3.824"/><path id="n7twV" d="M1006.56 3405.957s-6.932 2.195-6.438 5.499c.495 3.304-.704-1.53 6.439-5.499z"/><path id="n7twW" d="M1003.332 3422.793s2.524-3.464 4.928-2.83c2.405.635-4.928 2.83-4.928 2.83z"/><path id="n7twX" d="M1042.92 3292.223a3.934 3.934 0 0 1-.809.605c-2 1.164-2.55 2.959-3.499 5.028-.885 1.895-1.86 3.9-3.644 4.974-2.304 1.39-5.339.88-7.733 2.09a5.998 5.998 0 0 0-3.2 5.913c.153.92.38 1.826.68 2.71a19.32 19.32 0 0 1 .73 5.883.996.996 0 0 1 0 .175 16.336 16.336 0 1 1 17.496-27.378z"/><path id="n7twY" d="M1042.496 3287.304c-1.795-3.769-5.699-6.158-9.712-7.323-3.065-.884-6.394-1.174-9.433-.2-1.734.55-3.309 1.5-4.934 2.315-3.029 1.53-6.358 2.739-8.637 5.253-.535.585-1 1.335-.865 2.11.115.575.565 1 .855 1.53.655 1.149.5 2.594.045 3.843-.455 1.25-1.1 2.41-1.41 3.694-.31 1.285-.19 2.79.76 3.704.425.405.97.66 1.43 1 .52.449.975.967 1.354 1.54l2.7 3.689a37.414 37.414 0 0 1 3.379 5.193c.67 1.34 1.19 2.77 2.089 3.964.9 1.195 2.3 2.155 3.789 2.025.234.006.457-.1.6-.285a.79.79 0 0 0 .075-.375 19.186 19.186 0 0 0-.715-5.864c-.3-.882-.528-1.789-.68-2.709a6.023 6.023 0 0 1 3.2-5.913c2.399-1.21 5.433-.7 7.732-2.085 1.79-1.08 2.764-3.084 3.644-4.998.965-2.07 1.5-3.864 3.5-5.03 1.999-1.164 2.229-3.093 1.234-5.078z"/><path id="n7twZ" d="M1035.178 3554.367s2.5 3.184 1.85 4.999c-.65 1.814-1.85-4.999-1.85-4.999z"/><path id="n7twaa" d="M1068.994 3562.335s.555-4.269 2.779-4.309c2.224-.04 2.334-.23 4.034.425 1.7.655 3.294 1.67 2.784 1.82-.51.15-2.924-2.44-5.403-1.115a17.854 17.854 0 0 0-4.194 3.179z"/><path id="n7twab" d="M1027.72 3335.836l6.998-4.903s-10.237-6.049-11.457-5.2c-1.22.85-2.06 8.499-2.06 8.499z"/><path id="n7twac" d="M1027.69 3335.521l6.998-4.998s-10.237-6.049-11.457-5.199c-1.22.85-2.06 8.918-2.06 8.918z"/><path id="n7twad" d="M1024.39 3325.364l-.21-.105a1.815 1.815 0 0 0-1.964.205l-20.994 17.03s-4.564 6.314-3.929 17.206l12.382 17.54s1.414-5.938 3.109-4.809c0 0 2.404 30.417 0 34.8-2.404 4.385-3.464 20.795-3.464 20.795l8.133.92s.85-11.107 2.759-15.066c1.91-3.959 2.95-17.57 2.95-17.57s1.719-19.775 1.434-28.263c-.285-8.487-2.76-26.737-2.76-26.737s.695-10.697 2.555-15.946z"/><path id="n7twae" d="M1045.305 3332.737l-8.722-3.23s11.107-12.166 12.496-5.418z"/><path id="n7twaf" d="M1045.305 3332.312l-8.722-3.229s11.107-12.167 12.496-5.419z"/><path id="n7twag" d="M1045.02 3321.96a.5.5 0 0 1 .36.08z"/><path id="n7twah" d="M1045.86 3321.115l23.144 4.999s6.368 1.414 10.967 17.4c4.599 15.986-6.298 35.57-6.298 35.57l-2.405-2.044 1.205 46.682s-10.682 4.03-14.076.5c-3.394-3.529-3.04-20.104-3.04-20.104s-3.254-30.552-5.308-35.576c-2.055-5.023-1-41.234-1-41.234s-1.89-6.473-3.189-6.193z"/><path id="n7twai" d="M1067.034 3350.862c-.325.3-.704 14.426.71 25.178a137.215 137.215 0 0 0 3.999 19.38l-2.1-43.073s-1.619-2.405-2.609-1.485z"/><path id="n7twaj" d="M1064.205 3338.695c.565.355 3.044 6.224 1.91 8.628-1.135 2.404-1.91-8.628-1.91-8.628z"/><path id="n7twak" d="M1042.361 3287.304a12.776 12.776 0 0 0-5.089-5.328 12.102 12.102 0 0 1 3.814 4.499c1 1.999.705 3.998-1.24 5.093-1.944 1.095-2.549 2.96-3.498 5.029-.885 1.894-1.86 3.899-3.65 4.998-2.299 1.39-5.333.875-7.732 2.085a6.038 6.038 0 0 0-3.2 5.918c.154.919.383 1.823.685 2.705.545 1.912.79 3.896.73 5.883a.789.789 0 0 1-.08.375.715.715 0 0 1-.595.285 3.444 3.444 0 0 1-1.744-.325 4.059 4.059 0 0 0 2.999 1.175.59.59 0 0 0 .67-.66 19.18 19.18 0 0 0-.725-5.884 16.423 16.423 0 0 1-.685-2.709 6.023 6.023 0 0 1 3.2-5.913c2.399-1.21 5.433-.7 7.732-2.085 1.79-1.08 2.765-3.084 3.644-4.998.965-2.07 1.5-3.864 3.5-5.03 1.999-1.164 2.264-3.128 1.264-5.113z"/><path id="n7twal" d="M1163.388 3395.785l-6.238-2a27.994 27.994 0 0 1 3.854-4.768l.54-.5-.195.04.3-.275.18-.04-.285.275.34-.07a10.642 10.642 0 0 0 2.124 4.274c2.24 2.444-.615 3.064-.615 3.064zm-51.726-17.715c.025 2-.05 5.468-.17 9.302l-3.744-4.998 3.754-6.089zm73.095-27.993c-6.888-.135-12.966-4.998-16.41-10.942a10.997 10.997 0 0 1-1.66-4.683c.024-.38.088-.755.19-1.12.21-.558.378-1.131.5-1.715a3.006 3.006 0 0 0 0-.7v-.04c.165-1.264-.58-2.499-1.5-3.364-.92-.864-2.074-1.5-3.034-2.359-2.959-2.6-3.859-6.768-3.914-10.737v-.21c.035-1.7.17-3.404.155-5.104.024-.964-.018-1.93-.125-2.889-.285-2.404-1.2-4.854-3.089-6.388-4.928-3.999-13.216.165-18.32-3.614-1.24-.925-2.244-2.29-3.749-2.65-1.134-.274-2.314.096-3.424.465-3.759 1.24-7.953 2.87-9.422 6.499-.84 2.084-.605 4.463-1.375 6.573-.5 1.415-1.454 2.63-2.15 3.969a6.213 6.213 0 0 0-.8 3.314 3.74 3.74 0 0 0 .246 1.764 4.499 4.499 0 0 0 1.225 1.755c-.197.417-.442.81-.73 1.17-.96 1.174-2.435 2-3.434 3.169-1.85 2.144-1.78 5.058-.87 7.578.91 2.52 2.554 4.813 3.689 7.268.5 1.065.88 2.254.375 3.314-.355.735-1.09 1.295-1.66 1.93a6.063 6.063 0 0 0-1.5 3.348c-11.251 2.57-11.261 11.612-11.261 11.612l-6.079 15.286s-.974 2.575-2.12 5.974l-7.192-1.29 4.998 8.368c-.944 3.409-1.614 6.568-1.394 8.157 0 0-2.234 10.498 1.74 12.332l8.767 3.944c.38.233.788.416 1.215.545l.355.16a.94.94 0 0 0 .82 0h.12c.17.011.34-.014.5-.075a1 1 0 0 0 .44-.475.15.15 0 0 1 0-.05l2.623-.76 2.225 2.635c1 .704 2 1.314 2.944 1.864l-3.444 34.2s-.555 45.489-2.234 55.856c-.62 3.839-.625 6.458-.39 8.237l-.065.11c.415 2.925 1.5 3.5 1.5 3.5v-.04c.02.015.041.029.064.04a29.451 29.451 0 0 1 1.8-3.86v.75c-.035 3.86-.155 9.263-.555 12.777-.68 5.998 1.74 25.768 1.74 25.768l.834 17.995a16.636 16.636 0 0 1-2.05 8.768c-1.999 3.594-4.553 8.652-4.738 10.897-.01.121-.01.243 0 .365l-4.289 5.158s-1.674 2.59 2.11 3.634c2.034.565 5.543 0 8.362-.665a5.589 5.589 0 0 0 4.334-5.438 19.244 19.244 0 0 1 3.54-6.793l.704 4.144 4.719 1.17.605-11.358a4.998 4.998 0 0 0 .325-2c.93-8.077-2.19-7.352-2.19-7.352a.435.435 0 0 1 .15.28l-.15-.275c-1.914-3.78-1-9.997-1-9.997s2.5-17.996 3.354-22.75c.615-3.358.36-14.355.155-20.494 0-.255 0-.5-.025-.744 7.318-.095 16.286-.34 22.58-.95v.74l-1.16 42.513a23.337 23.337 0 0 1-1.63 7.908c0 .05-.035.095-.055.145a34.49 34.49 0 0 0-2.304 11.142l-.54 13.496v.375c-.94.36-2.424 1.405-2.464 4.434-.065 4.439 7.757 2.96 7.757 2.96 7.818 0 7.883-8.139 7.883-8.139s.245-7.463.62-12.456c.375-4.994-1.18-3.894-1.18-3.894v-.375l.985-14.651s7.203-24.414 8.318-29.097c.795-3.33.465-13.357.205-18.9 0-.255 0-.5-.04-.735 2.234-.2 4.209-.22 4.999-.22h.364s-.37-39.21-1.304-53.985c-.935-14.776-2.42-28.298-6.144-32.367-2.249-2.459-5.383-10.052-7.498-15.675a78.414 78.414 0 0 0 13.782 4.498c11.792 2.47 10.177-7.767 10.177-7.767l-1.195-19.36h.08a98.715 98.715 0 0 0-1.3-15.136c-.624-3.84-1.579-7.808-3.039-10.997 1.28-.5 2.545-1.035 3.784-1.585 3.205-1.414 6.814-3.419 7.273-6.873h-.154c.061-.25.101-.503.12-.76zm-29.531 238.19v-12.34l.119-1.796z"/><path id="n7twan" d="M1125.494 3575.731l-.73 13.837-4.654-1.165-.98-5.754z"/><path id="n7twao" d="M1142.574 3591.402l7.098 1.47 5.264-4.649v-13.101l.12-1.79v-.435l.98-14.56s7.102-24.24 8.207-28.893c.78-3.3.455-13.257.195-18.76-.105-2.254-.195-3.764-.195-3.764l-15.67-3.794-.33 12.047-1.145 42.208a23.389 23.389 0 0 1-1.605 7.853l-.055.145a34.351 34.351 0 0 0-2.274 11.057l-.53 13.421v.37z"/><path id="n7twap" d="M1155.056 3572.907v.37-.38z"/><path id="n7twaq" d="M1142.574 3591.402l7.098 1.47 5.264-4.649v-1.115a1.5 1.5 0 0 1-.755 1.2l-.075.045a14.146 14.146 0 0 1-7.968 1.575l-2.77-.235c-.252.023-.5.084-.734.18v.37z"/><path id="n7twar" d="M1154.106 3588.718l.075-.04a1.5 1.5 0 0 0 .765-1.3l.115-14.101s1.53-1.095 1.16 3.864c-.37 4.959-.61 12.367-.61 12.367s-.06 8.077-7.773 8.077c0 0-7.713 1.47-7.653-2.939.06-4.409 3.184-4.589 3.184-4.589l2.769.24a14.112 14.112 0 0 0 7.968-1.58z"/><path id="n7twas" d="M1105.604 3588.403c.18 3.184 9.547 1.345 9.547 1.345l6.304-12.237s5.263-4.044 2.629-7.593a5.677 5.677 0 0 1-.385-.605l-.025-.03a3.824 3.824 0 0 1-.155-.285c-1.89-3.749-.96-9.897-.96-9.897s2.445-17.875 3.304-22.59c.605-3.328.355-14.25.155-20.359-.08-2.539-.155-4.243-.155-4.243l-15.55-4.164v4.639c-.035 3.833-.155 9.197-.55 12.686-.67 5.933 1.714 25.583 1.714 25.583l.825 17.88a16.56 16.56 0 0 1-2 8.703c-1.949 3.569-4.498 8.598-4.673 10.822-.018.114-.026.23-.025.345z"/><path id="n7twat" d="M1105.604 3588.403c.18 3.184 9.547 1.345 9.547 1.345l6.304-12.237s5.263-4.044 2.629-7.593a5.665 5.665 0 0 1-.385-.605c-.085 1.855-2.12 6.498-2.12 6.498s-5.203 10.413-6.858 12.797c-1.654 2.384-8.842-.445-9.112-.545-.01.113-.012.227-.005.34z"/><path id="n7twau" d="M1123.519 3568.983s3.08-.715 2.16 7.303a5.164 5.164 0 0 1-2.435 4.584c-2.204 1.385-5.603 4.364-7.323 10.157a5.538 5.538 0 0 1-4.274 5.399c-2.779.65-6.243 1.22-8.248.66-3.734-1.04-2.079-3.61-2.079-3.61l4.284-5.083s7.468 2.94 9.117.55c1.65-2.39 6.859-12.792 6.859-12.792s2.854-6.493 1.939-7.168z"/><path id="n7twav" d="M1148.572 3504.61l-.33 12.047c4.174-.405 7.163-.97 7.673-1.764 1.105-1.71 5.114-2.43 8.523-2.724-.105-2.255-.195-3.764-.195-3.764z"/><path id="n7twaw" d="M1110.313 3513.848a5.718 5.718 0 0 1 1.714-2.07c1.65-.914 1.47 5.88 1.47 5.88s5.498.049 12.521-.041c-.08-2.54-.155-4.249-.155-4.249l-15.55-4.159s.03 1.93 0 4.64z"/><path id="n7twax" d="M1108.538 3515.458s1.84-4.999 3.5-5.889c1.659-.89 1.469 5.874 1.469 5.874s40.399.37 42.418-2.755c2.02-3.124 13.772-2.939 13.772-2.939s-.365-38.93-1.285-53.615c-.92-14.686-2.384-28.098-6.059-32.137-2.374-2.614-5.753-11.072-7.842-16.71-1.135-3.08-1.89-5.324-1.89-5.324l-38.56 2.2-.314 3.124-4.094 40.949s-.55 45.173-2.205 55.455c-1.654 10.282 1.09 11.767 1.09 11.767z"/><path id="n7tway" d="M1152.786 3512.688c2-3.119 13.771-2.939 13.771-2.939s-.365-38.93-1.284-53.615c-.92-14.686-2.385-28.098-6.059-32.137-2.384-2.624-5.753-11.072-7.843-16.71a201.29 201.29 0 0 1-1.829-5.154l3-.17s.754 2.245 1.894 5.324c2.09 5.638 5.463 14.096 7.838 16.71 3.674 4.04 5.143 17.446 6.058 32.137.915 14.69 1.29 53.615 1.29 53.615s-11.752-.18-13.777 2.94c-1.724 2.664-31.451 2.789-40.079 2.764 11.072-.025 35.46-.355 37.02-2.765z"/><path id="n7twaz" d="M1108.898 3509.57c.745-.416 1.115.734 1.3 2.129a28.837 28.837 0 0 0-1.735 3.759s-1.065-.575-1.5-3.5c.61-1.044 1.285-2.029 1.935-2.389z"/><path id="n7twaA" d="M1120.455 3307.774c-2.67 3.639.03 8.812-2.834 12.351-.945 1.17-2.4 2-3.384 3.15-1.825 2.129-1.755 5.023-.86 7.523.895 2.499 2.5 4.778 3.639 7.218.5 1.054.87 2.239.37 3.289-.35.73-1.075 1.284-1.64 1.914-1.84 2.055-1.89 4.909-.9 7.328.99 2.42 2.88 4.499 4.744 6.548.735.805 1.665 1.695 2.89 1.67a3.999 3.999 0 0 0 1.814-.595c8.81-4.5 12.519-15.136 8.418-24.138-1.55-3.714-4.134-7.273-4.16-11.197 0-3.114 1.6-6.089 1.885-9.188.345-3.769-1.884-9.752-6.433-11.397.3 2.42-2.194 3.654-3.55 5.524z"/><path id="n7twaB" d="M1150.057 3440.143c-5.344.28-10.372 2.58-15.051 5.179s-9.208 5.543-14.241 7.388"/><path id="n7twaC" d="M1146.738 3452.735a22.029 22.029 0 0 0-13.872 6.748c-1.3 1.374-2.419 2.914-3.773 4.234a16.766 16.766 0 0 1-7.439 4.213"/><path id="n7twaD" d="M1147.832 3462.317a24.253 24.253 0 0 0-11.157 6.728c-.82.885-1.564 1.83-2.384 2.714-4.424 4.75-10.672 7.268-16.705 9.653"/><path id="n7twaE" d="M1147.378 3329.428c.117 4.27.485 8.53 1.1 12.756.5 3 1.199 5.699 2.204 6.894 2.939 3.499-14.322 8.172-14.322 8.172l-10.192-7.897s8.078-7.438 4.314-14.692c-3.764-7.253 16.896-5.233 16.896-5.233z"/><path id="n7twaF" d="M1113.737 3407.287h40.764c-1.135-3.08-1.89-5.324-1.89-5.324l-38.56 2.2z"/><path id="n7twaG" d="M1111.112 3406.552h43.584c-1.225-4.384 0-8.438 1.744-11.557a25.54 25.54 0 0 1 4.564-5.918l.3-.275 15.216-3.37.82-.18s.124-27.667-9.673-31.466c-9.797-3.799-15.67-8.932-15.67-8.932l-13.462 4.159-9.917-4.999c-3.184 3.424-11.632 2.08-11.632 2.08-13.831 1.589-13.831 11.996-13.831 11.996s8.077 18.85 8.692 18.85c.615 0-.735 29.612-.735 29.612z"/><path id="n7twaH" d="M1126.158 3388.962s-8.887-1.97-11.911-5.414"/><path id="n7twaI" d="M1170.971 3378.64l-10.307 8.447c.075.673.188 1.34.34 2l.3-.275 15.216-3.37z"/><path id="n7twaJ" d="M1143.064 3403.613s2.254 1.27 5.708 2.939h5.924c-1.225-4.384 0-8.438 1.744-11.557l-10.442-3.379c3.554 3.304-2.934 11.997-2.934 11.997z"/><path id="n7twaK" d="M1109.273 3354.771l-6.119 3.304-5.998 15.181s-6.243 16.646-5.633 21.054c0 0-2.2 10.408 1.714 12.242l10.197 4.619a.95.95 0 0 0 1.225-1.31c-1.454-2.754-3.054-7.063-.5-9.432l-2.939-6.119 10.622-17.385 3.55-5.998z"/><path id="n7twaL" d="M1122.884 3385.488c.53 2.16 2.32 5.498 8.243 6.743l6.498 5.323 6.913 3.135 2.82 1.274 1.194-8.632-2.714-1.5-3.164-1.73s-7.138-12.931-18.44-7.497a2.5 2.5 0 0 0-1.35 2.884z"/><path id="n7twaM" d="M1123.254 3384.753c.53 2.164 2.315 5.498 8.238 6.743l6.498 5.324 6.918 3.134 2.814 1.274 1.195-8.632-2.714-1.5-3.14-1.714s-7.142-12.932-18.444-7.473a2.5 2.5 0 0 0-1.365 2.844z"/><path id="n7twaN" d="M1120.2 3324.834c0-8.72 7.07-15.79 15.79-15.79 8.722 0 15.791 7.07 15.791 15.79 0 8.721-7.07 15.79-15.79 15.79-8.721 0-15.791-7.069-15.791-15.79z"/><path id="n7twaO" d="M1120.2 3324.47c0-8.722 7.07-15.791 15.79-15.791 8.722 0 15.791 7.07 15.791 15.79 0 8.721-7.07 15.791-15.79 15.791-8.721 0-15.791-7.07-15.791-15.79z"/><path id="n7twaP" d="M1145.773 3358.21l-4.749-9.227s6.948-2.81 7.453-6.064c.505-3.254 6.658 3.814 5.329 6.159-1.33 2.344-8.033 9.132-8.033 9.132z"/><path id="n7twaQ" d="M1145.773 3357.475l-4.749-9.227s6.948-2.81 7.453-6.064c.505-3.254 6.658 3.82 5.329 6.159-1.33 2.34-8.033 9.132-8.033 9.132z"/><path id="n7twaR" d="M1106.909 3381.314l26.237 35.275s-9.672 5.264-22.993-4.159l-5.754-6.858-16.425-27.687z"/><path id="n7twaS" d="M1101.745 3400.494l2.39-.065s14.595-14.166 18.18-6.998c3.583 7.168-9.093 13.866-9.093 13.866l-3.854 2.08-5.024 1.499-3.214-4.314z"/><path id="n7twaT" d="M1105.269 3408.147c.22.814.43 1.714.06 2.469a1 1 0 0 1-.435.475c-.159.061-.33.085-.5.07a5.023 5.023 0 0 1-3.294-1.63 15.045 15.045 0 0 1-2.134-3.089c-.65-1.135-1.325-2.39-1.095-3.679.26-1.404 1.5-2.38 2.714-3.169 2.42-1.6 2.5.265 3.03 2.324.53 2.06 1.1 4.15 1.654 6.229z"/><path id="n7twaU" d="M1104.904 3408.147c.215.814.43 1.714.06 2.469a1 1 0 0 1-.435.475c-.159.06-.33.085-.5.07a4.999 4.999 0 0 1-3.294-1.63 14.87 14.87 0 0 1-2.14-3.089c-.65-1.135-1.324-2.39-1.089-3.679.255-1.404 1.5-2.38 2.71-3.169 2.424-1.6 2.499.265 3.033 2.324.535 2.06 1.095 4.15 1.655 6.229z"/><path id="n7twaV" d="M1111.847 3376.925l1.22-2.064-1.065 3.834z"/><path id="n7twaW" d="M1144.928 3399.954l2.815 1.275 1.194-8.633-2.714-1.5c1.874 2.15.235 6.124-1.295 8.858z"/><path id="n7twaX" d="M1156.225 3389.932s-9.087.554-12.946-1.925"/><path id="n7twaY" d="M1155.095 3395.73a25.583 25.583 0 0 1 4.564-5.923 12.19 12.19 0 0 1 1.345-.73l14.166-2.91.82-.18s.125-27.667-9.667-31.466a58.845 58.845 0 0 1-15.276-8.603l1.074-.33s5.874 5.14 15.671 8.933c9.797 3.794 9.667 31.467 9.667 31.467h-1.47l-14.495 2.774s-.625.605-.815.78a28.091 28.091 0 0 0-4.634 6.128 15.366 15.366 0 0 0-1.214 11.617h-1.5c-1.21-4.384.04-8.438 1.764-11.557z"/><path id="n7twaZ" d="M1116.406 3346.893c.235-.035.46-.07.705-.095.994.141 1.995.223 2.999.245a27.26 27.26 0 0 1-3.704-.15z"/><path id="n7twba" d="M1137.185 3349.747l-8.967-4.538c.178-.146.345-.305.5-.475l9.357 4.733z"/><path id="n7twbb" d="M1171.326 3377.885l5.998 7.348 1.225 19.954s1.59 10.158-10.037 7.708c-11.627-2.449-25.083-10.017-25.083-10.017s6.498-8.693 2.939-11.997l16.65 5.389s2.815-.615.61-3.06c-2.204-2.444-2.594-6.857-2.594-6.857z"/><path id="n7twbc" d="M1174.035 3398.964l3.304 3.794a4.764 4.764 0 0 1-3.304-3.794z"/><path id="n7twbd" d="M1168.402 3398.35l5.144 6.608-2.57.614z"/><path id="n7twbe" d="M1117.13 3317.221c-.564-1.384-.13-2.999.55-4.304.68-1.304 1.615-2.539 2.125-3.944.755-2.089.525-4.453 1.35-6.498 1.454-3.624 5.588-5.243 9.292-6.498 1.095-.365 2.26-.73 3.38-.46 1.499.355 2.474 1.715 3.698 2.63 5.029 3.748 13.207-.38 18.07 3.588 1.86 1.5 2.765 3.954 3.045 6.339.28 2.384 0 4.803-.03 7.208-.08 4.209.71 8.812 3.859 11.602.95.84 2.069 1.47 2.999 2.339.93.87 1.66 2.084 1.5 3.344-.124.578-.29 1.147-.5 1.7-.625 2.194.31 4.498 1.45 6.498 3.398 5.883 9.392 10.732 16.185 10.867-.455 3.429-4 5.418-7.173 6.823-4 1.795-8.258 3.554-12.662 3.33-4.404-.226-8.998-3.045-9.767-7.384-.265-1.5-.23-3.304-1.5-4.084-.78-.475-1.79-.355-2.63-.71-1.214-.5-1.814-1.864-2.214-3.119a28.077 28.077 0 0 1-1.304-7.998c-.055-3.219.37-6.733-1.455-9.382-1.69-2.454-4.689-3.699-6.638-5.953-1.8-2.09-3.754-4.61-6.703-4.999-4.08-.575-12.517 4.969-14.926-.935z"/><path id="n7twbf" d="M1117.13 3316.486c-.564-1.384-.13-2.999.55-4.303.68-1.305 1.615-2.54 2.125-3.944.755-2.09.525-4.454 1.35-6.499 1.454-3.629 5.588-5.248 9.292-6.498 1.095-.365 2.26-.73 3.38-.46 1.499.355 2.474 1.715 3.698 2.63 5.029 3.749 13.207-.38 18.07 3.589 1.86 1.5 2.765 3.954 3.045 6.343.28 2.39 0 4.799-.03 7.203-.08 4.209.71 8.813 3.859 11.602.95.84 2.069 1.47 2.999 2.34.93.869 1.66 2.084 1.5 3.343-.124.579-.29 1.147-.5 1.7-.625 2.194.31 4.499 1.45 6.498 3.408 5.863 9.377 10.727 16.17 10.862-.455 3.43-4 5.419-7.173 6.828-4 1.79-8.258 3.55-12.662 3.324-4.404-.225-8.998-3.044-9.767-7.383-.265-1.5-.23-3.304-1.5-4.084-.78-.474-1.79-.354-2.63-.71-1.214-.5-1.814-1.864-2.214-3.118a28.042 28.042 0 0 1-1.304-7.998c-.055-3.22.37-6.733-1.455-9.383-1.69-2.454-4.689-3.699-6.638-5.953-1.8-2.09-3.754-4.609-6.703-4.999-4.064-.57-12.502 4.984-14.911-.93z"/><path id="n7twbg" d="M1128.338 3357.065l9.052-7.348s-6.198-3.359-6.938-6.223c-.74-2.864-5.698 1.36-5.193 3.929.504 2.57 3.079 9.642 3.079 9.642z"/><path id="n7twbh" d="M1128.693 3355.96l9.052-7.342s-6.198-3.36-6.908-6.224c-.71-2.864-5.698 1.36-5.194 3.93.505 2.569 3.05 9.637 3.05 9.637z"/><path id="n7twbi" d="M1137.38 3354.766a.72.72 0 1 1 1.44 0 .72.72 0 0 1-1.44 0z"/><path id="n7twbj" d="M1137.38 3358.765a.72.72 0 1 1 1.44 0 .72.72 0 0 1-1.44 0z"/><path id="n7twbk" d="M1137.38 3362.759a.72.72 0 1 1 1.44 0 .72.72 0 0 1-1.44 0z"/><path id="n7twbl" d="M1120.785 3306.28c.715-1.965.56-4.17 1.23-6.15-.31.438-.568.912-.765 1.41-.83 2.065-.595 4.43-1.355 6.499l-.05.12c.37-.597.685-1.226.94-1.88z"/><path id="n7twbm" d="M1177.894 3355.76c-3.999 1.79-8.257 3.55-12.661 3.325-4.404-.225-8.998-3.044-9.768-7.378-.264-1.5-.23-3.31-1.5-4.089-.779-.475-1.789-.355-2.628-.71-1.215-.5-1.815-1.864-2.215-3.119a28.042 28.042 0 0 1-1.304-7.998c-.055-3.214.374-6.728-1.45-9.382-1.695-2.455-4.694-3.694-6.643-5.954-1.8-2.084-3.754-4.608-6.703-4.998-4.044-.55-12.497 4.998-14.886-.91a4.648 4.648 0 0 1 .154-3.414c-.174.295-.344.59-.5.89-.68 1.33-1.109 2.924-.544 4.308 2.404 5.899 10.842.355 14.886.91 2.949.4 4.903 2.924 6.703 4.999 1.95 2.26 4.949 3.499 6.638 5.958 1.83 2.65 1.4 6.164 1.455 9.378.045 2.715.485 5.409 1.304 7.998.4 1.26 1 2.609 2.215 3.119.84.355 1.85.24 2.63.71 1.289.78 1.254 2.604 1.499 4.088.78 4.334 5.368 7.153 9.767 7.378 4.399.225 8.638-1.53 12.662-3.324 2.899-1.29 6.128-3.074 6.998-5.998-1.39 1.9-3.85 3.21-6.109 4.214z"/><path id="n7twbn" d="M1198.474 3603.034c-.28-.14-.445-.235-.445-.235zm67.761-219.06c-10.582-6.09-14.58-7.589-14.6-7.589l-.22-.155a8.803 8.803 0 0 1-2.665-3.369 7.02 7.02 0 0 1 0-.725.305.305 0 0 0 0 .07c.165-3.224 2.46-6.158 4.634-8.717l5.563-6.543a6.448 6.448 0 0 0 1.435-2.27c.112-.456.163-.925.15-1.395v-.57a265.03 265.03 0 0 0-.135-4.878c-.05-1.42-.415-3.21-1.834-3.5-.74-.15-1.72.116-2.11-.499a1.214 1.214 0 0 1-.095-.845.286.286 0 0 0 0 .07v-.08a18.83 18.83 0 0 0 .525-3.344 4.558 4.558 0 0 0-.23-1.694c-.82-2.355-3.654-3.324-6.158-3.77-2.505-.444-5.314-.824-6.883-2.784a20.387 20.387 0 0 0-1.37-1.884 5.404 5.404 0 0 0-2.56-1.265 14.496 14.496 0 0 0-9.312.81c-1.21.54-2.424 1.27-3.754 1.19-1.33-.08-2.56-1.04-3.919-1.27-2.2-.375-4.304 1.24-5.388 3.154a7.713 7.713 0 0 0-1 3.72v.22a5.439 5.439 0 0 0 1.43 3.798c.95 1 2.359 1.66 2.754 2.954.16.525.12 1.095.265 1.63.015.066.035.131.06.195l-.07.095a16.496 16.496 0 0 0-3.5 10.167 16.875 16.875 0 0 0 11.857 15.996v.5c0 1.999-.574 4.084-2.299 5.598l-14.99 5.988s-9.038-1.074-12.298 12.132a22.52 22.52 0 0 0-.56 6.698c.12 2-.154 5.499-2.499 10.033-3.704 7.258-2.859 23.918 4.719 25.568 7.153 1.56 9.952.91 10.247.835v.29c-.12 3.129-1.254 30.091-5.378 33.35-1.14.905-.93 1.5 0 1.925 0 0 0 .175-.025.5-.125 2-.76 9.497-3.5 13.756-3.203 4.949-2.869 33.491-2.869 33.491l-2.184 16.825s1.345 10.393 0 12.207c-1.205 1.615-2.804 40.06-3.14 48.397h-.14a4.059 4.059 0 0 0-3.238 2c-1.77 2.874-7.968 8.187-7.968 8.187-1.345 1.91-6.318 3.74-8.948 4.6-.347.113-.681.26-1 .439a5.333 5.333 0 0 0-2.259 2.38 2.554 2.554 0 0 0-.24 1.999c.67 1.644 14.651 2.804 18.19 1.15 2.78-1.295 13.797-3 18.37-3.67a3.769 3.769 0 0 0 3.27-3.269 2.155 2.155 0 0 0-.42-1.634c-.875-1.085-1.32-4.05-1.5-5.999a4.053 4.053 0 0 0 1.03-.61c-.383-5.992.468-11.999 2.5-17.65 3.368-8.907 4.378-25.403 3.538-36.125 0 0 10.272-44.208 18.36-48.332.125.16 4.05 5.194 4.549 20.785.5 15.835 6.228 26.227 6.228 26.227s-2.53 26.888 0 36.95l-3.304 15.871c-.245-.205-.4-.365-.4-.365s.1.44.235 1.145l-.07.34.145.03c.375 2 .93 5.443.7 7.498-.13 1.154-.455 2.74-.675 4.294-.35 2.444-.445 4.813.84 5.333 2.11.85 14.496 2 16.595-.72.964-1.13 1.2-2.71.61-4.074a4.127 4.127 0 0 0-.61-1.04s-3.289-5.373-2.359-9.162a2.79 2.79 0 0 0-.395-2.174c.145-1.86.895-10.467 2.834-17.775 2.11-7.938 6.554-25.344 3.285-36.785-.124-.45-.264-.89-.42-1.32a49.405 49.405 0 0 1-1.855-19.3 39.334 39.334 0 0 1 0-16.825c2.025-9.238 3.44-18.31 3.44-18.31s1.114-12.207.14-19.69c0-.16-.046-.32-.066-.5l.53-.12s-2.864-12.701-3.874-20.784c-.24-1.91-.55-4.324-.89-6.903a17.62 17.62 0 0 0 2.745-.685c9.092-3.134 11.956-31.492 11.956-31.492v-8.997s3.06-13.831-7.553-19.935z"/><path id="n7twbp" d="M1260.747 3547.694c3.944 11.342-.66 29.752-2.8 37.99-2.139 8.237-2.793 18.085-2.793 18.085-8.383 1.314-14.467-.33-14.467-.33l3.454-16.93c-2.469-10.028 0-36.826 0-36.826s-5.588-10.357-6.083-26.138c-.5-15.53-4.314-20.554-4.434-20.709-7.888 4.109-17.915 48.167-17.915 48.167.82 10.682-.17 27.123-3.454 35.99a44.488 44.488 0 0 0-2.464 17.586c-1.15 1-2.75 1.14-4.5.86-4.693-.76-10.321-4.804-10.321-4.804s1.804-47.987 3.124-49.807c1.32-1.82 0-12.167 0-12.167l2.134-16.765s-.33-28.442 2.795-33.371c2.699-4.259 3.319-11.747 3.439-13.711v-.5l4.758-5.699s46.028-3.454 49.487 0c.845.845 1.37 2.775 1.68 5.199.95 7.458-.14 19.62-.14 19.62s-1.38 9.042-3.355 18.245a40.05 40.05 0 0 0 0 16.77 50.2 50.2 0 0 0 1.855 19.245z"/><path id="n7twbq" d="M1257.868 3619.774c-2.055 2.715-14.136 1.565-16.196.72-1.255-.5-1.16-2.884-.82-5.318.215-1.545.53-3.125.66-4.274.325-2.96-1-8.963-1-8.963s2.71 2.88 3.364 0c.29-1.26 1.3-1.904 2.35-2.23a6.138 6.138 0 0 1 4.269.266c2.134.93 5.693 2.904 5.058 5.573-.904 3.774 2.3 9.133 2.3 9.133.248.313.45.66.6 1.03a3.944 3.944 0 0 1-.585 4.064z"/><path id="n7twbr" d="M1257.868 3619.774c-2.055 2.715-14.136 1.565-16.196.72-1.255-.5-1.16-2.884-.82-5.318 1.3.61 3.5 1.114 7.183.774a20.259 20.259 0 0 1 2.585-.08 60.1 60.1 0 0 0 7.848-.16 3.944 3.944 0 0 1-.6 4.064z"/><path id="n7twbs" d="M1215.704 3550.983c.82 10.682-.17 27.123-3.454 35.99a44.486 44.486 0 0 0-2.464 17.586c-1.15 1-2.75 1.14-4.5.86 1-6.934 5.22-36.806 7.924-60.41 3.084-26.877 17.495-45.367 17.495-45.367l2.874 3.164c-7.848 4.119-17.875 48.177-17.875 48.177z"/><path id="n7twbt" d="M1252.934 3378.21l-2 9.862-9.832 16.52-12.122-5.178s-16.495-17.26-6.123-19.725a9.178 9.178 0 0 0 3.44-1.53c2.034-1.534 2.673-3.763 2.683-5.948a18.233 18.233 0 0 0-1.67-7.068l21.205-6.658a34.034 34.034 0 0 0-1.5 8.588c-.164 5.778 2 8.622 3.745 9.997a6.37 6.37 0 0 0 2.174 1.14z"/><path id="n7twbu" d="M1248.495 3358.485a34.037 34.037 0 0 0-1.5 8.588 16.776 16.776 0 0 1-18 5.139 18.236 18.236 0 0 0-1.684-7.069z"/><path id="n7twbv" d="M1250.93 3355.77c.002 9.264-7.505 16.774-16.768 16.776-9.266 0-16.774-7.51-16.773-16.772 0-9.261 7.51-16.77 16.772-16.769a16.69 16.69 0 0 1 16.769 16.766z"/><path id="n7twbw" d="M1252.934 3378.21l-2 9.862-9.832 16.52-12.122-5.178s-16.495-17.26-6.123-19.725a9.178 9.178 0 0 0 3.44-1.53c-1.87 5.14 5.848 15.831 5.848 15.831.9 1.325 2.959.5 2.959.5 4.974-.754 14.126-15.056 15.62-17.435.654.527 1.405.92 2.21 1.155z"/><path id="n7twbx" d="M1262.427 3473.824c-2.92.665-19.07 4.239-25.194 3.344-6.738-1-19.84-1.64-19.84-1.64s-8.342.45-10.911-.724v-.5l4.758-5.699s46.028-3.454 49.487 0c.865.865 1.39 2.795 1.7 5.219z"/><path id="n7twby" d="M1232.14 3394.485s-8.673-11.996-5.404-16.695l-14.65 5.998s-8.819-1.07-11.998 12.092a22.898 22.898 0 0 0-.544 6.678c.12 2-.15 5.499-2.415 9.997-3.614 7.233-2.794 23.839 4.604 25.494 7.398 1.654 10.022.82 10.022.82s-1 30.081-5.258 33.535c-4.26 3.454 10.897 2.63 10.897 2.63s13.101.66 19.844 1.644c6.743.985 25.643-3.454 25.643-3.454s-2.794-12.657-3.784-20.71c-.99-8.052-3.294-25.208-3.294-25.208l16.766-22.713s2.959-13.727-7.398-19.81c-10.357-6.083-14.251-7.573-14.251-7.573s-10.408 16.945-15.831 17.765c.01 0-2.05.83-2.95-.49z"/><path id="n7twbz" d="M1212.905 3399.249s-.16 5.429.825 7.563c.984 2.134 4.603 13.996 4.603 13.996h-8.222s4.438-4.768 4.114-7.073c-.325-2.304-1.32-14.486-1.32-14.486z"/><path id="n7twbA" d="M1237.238 3440.183s-18.155-4.439-19.844-8.218c-1.69-3.779-6.354-12.241-6.354-12.241l1.915-2.58 8.827 6.928s10.498 8.383 15.456 9.208c4.959.825 0 6.903 0 6.903z"/><path id="n7twbB" d="M1252.934 3418.814v9.847h-1.58a46.031 46.031 0 0 0-22.362 5.793l-2.96 1.64-.795.445-5.1-11.497 4.77-4.274h.245c1.164.115 6.208.535 8.347-.185 2.03-.69 4.55-2.874 10.527-1.35 2.945.756 5.464 4.055 8.318 3.025z"/><path id="n7twbC" d="M1268.8 3400.879l3.284 3.699v8.962s-2.794 28.273-11.667 31.397c-8.873 3.124-24.723-1.81-24.723-1.81s-4.094-10.847-2.18-11.497c1.915-.65 16.92-4.618 16.92-4.618s-.21-16.586 3.075-21.52c0 0-2.135-15.45 5.263-15.78 7.398-.33 10.028 11.167 10.028 11.167z"/><path id="n7twbD" d="M1269.3 3400.879l3.289 3.699v8.962s-2.795 28.273-11.672 31.397c-8.878 3.124-24.723-1.81-24.723-1.81s-4.094-10.847-2.175-11.497c1.92-.65 16.92-4.618 16.92-4.618s-.214-16.586 3.075-21.52c0 0-2.14-15.45 5.258-15.78 7.398-.33 10.028 11.167 10.028 11.167z"/><path id="n7twbE" d="M1246.33 3362.889a6.607 6.607 0 0 0-.374-3.204c-.465-1-1.55-1.755-2.61-1.5-1.404.33-1.999 2.16-3.388 2.6-1.165.37-2.435-.455-3-1.54-.564-1.085-.57-2.36-.57-3.58v-4.118c0-1.5-.05-3.11-.97-4.284-1.144-1.46-3.838-2.1-5.638-2.04a4.784 4.784 0 0 0-3.219 1.295c-.96.82-2.074 1.42-3.384 1.205a2.914 2.914 0 0 1-2.36-2.04v-.05a16.765 16.765 0 1 1 24.924 22.254c.29-1.654.486-3.322.59-4.998z"/><path id="n7twbF" d="M1223.177 3347.238a2.94 2.94 0 0 1-2.364-2.044c-.135-.53-.1-1.095-.255-1.62-.385-1.295-1.765-1.964-2.69-2.95-1.849-1.964-1.729-5.193-.42-7.557 1.06-1.905 3.11-3.5 5.26-3.14 1.329.23 2.499 1.175 3.828 1.265 1.33.09 2.5-.644 3.664-1.184a13.806 13.806 0 0 1 9.108-.81 5.248 5.248 0 0 1 2.5 1.265c.477.6.922 1.226 1.334 1.874 1.53 1.95 4.273 2.334 6.718 2.774 2.444.44 5.208 1.41 5.998 3.76.535 1.559 0 3.248-.29 4.868a1.47 1.47 0 0 0 .065 1c.385.63 1.34.365 2.06.5 1.384.295 1.74 2.08 1.794 3.499.057 1.62.1 3.24.13 4.863.04.604-.009 1.21-.145 1.8a6.352 6.352 0 0 1-1.394 2.264l-5.429 6.524c-2.41 2.889-4.963 6.258-4.499 9.997-1.14.5-2.499-.475-2.869-1.67-.37-1.194-.075-2.5.18-3.704.443-2.117.733-4.264.87-6.423a6.588 6.588 0 0 0-.375-3.2c-.465-.999-1.55-1.754-2.61-1.499-1.409.33-1.999 2.16-3.388 2.6-1.165.37-2.435-.455-3-1.54-.564-1.085-.57-2.354-.57-3.574v-4.124c0-1.5-.05-3.11-.97-4.284-1.144-1.46-3.838-2.1-5.638-2.04a4.784 4.784 0 0 0-3.214 1.295c-.965.825-2.08 1.43-3.389 1.215z"/><path id="n7twbG" d="M1226.961 3398.84l5.149 21.148s4.059-.025-5.149-21.149z"/><path id="n7twbH" d="M1244.551 3395.305s-6.738 11.037-4.109 22.454l1.255.09s-2.24-5.284 2.854-22.544z"/><path id="n7twbI" d="M1248.805 3457.773s8.278-2.739 8.878 3.614c.02 0-1.54-4.354-8.878-3.614z"/><path id="n7twbJ" d="M1224.907 3421.278s-1.645 11.497 1.314 16.11c0 0-5.998 2.465-14.466 1.975l-1-18.085z"/><path id="n7twbK" d="M1226.031 3436.094l-.794.445-5.1-11.497 4.77-4.274h.245c-.075.57-1.405 10.452.88 15.326z"/><path id="n7twbL" d="M1224.907 3420.788s-1.645 11.497 1.314 16.106c0 0-5.998 2.47-14.466 1.974l-5.753-18.08z"/><path id="n7twbM" d="M1210.69 3612.776a3.724 3.724 0 0 1-3.194 3.26c-4.463.664-15.216 2.364-17.93 3.658-3.454 1.645-17.095.5-17.755-1.15a2.61 2.61 0 0 1 .235-1.999 5.27 5.27 0 0 1 2.204-2.369 5.852 5.852 0 0 1 1-.44c2.57-.855 7.423-2.674 8.733-4.584 0 0 6.053-5.293 7.778-8.152a3.949 3.949 0 0 1 3.159-1.97c1.44-.065 3.044.66 3.704 3.814 0 0 7.883 4.499 9.997.555 0 0 .33 6.058 1.64 7.718a2.2 2.2 0 0 1 .43 1.66z"/><path id="n7twbN" d="M1210.69 3612.776a3.724 3.724 0 0 1-3.194 3.26c-4.463.664-15.216 2.364-17.93 3.658-3.454 1.645-17.095.5-17.755-1.15a2.61 2.61 0 0 1 .235-1.999 5.27 5.27 0 0 1 2.204-2.369c2.225 1.5 7.163 2.92 18.025 1.225 10.363-1.62 15.496-3.204 17.996-4.284a2.2 2.2 0 0 1 .42 1.66z"/><path id="n7twbO" d="M1255.543 3343.969v-.08c.235-1.23.59-2.5.5-3.734a24.642 24.642 0 0 1-.5 3 1.818 1.818 0 0 0 0 .814z"/><path id="n7twbP" d="M1245.95 3359.355c.263.592.4 1.232.406 1.88a5.668 5.668 0 0 0-.405-2.62c-.46-1-1.545-1.754-2.604-1.5-1.41.33-2 2.16-3.395 2.6-1.16.37-2.429-.455-2.999-1.54-.57-1.085-.57-2.36-.57-3.579v-4.119c0-1.5-.05-3.109-.97-4.284-1.149-1.464-3.838-2.099-5.638-2.044a4.789 4.789 0 0 0-3.219 1.3c-.965.82-2.074 1.42-3.389 1.204a2.93 2.93 0 0 1-2.36-2.04c-.134-.529-.1-1.099-.254-1.624-.385-1.29-1.765-1.964-2.69-2.944a5.383 5.383 0 0 1-1.384-3.499 5.603 5.603 0 0 0 1.384 4.214c.925 1 2.305 1.654 2.69 2.944.155.5.12 1.095.255 1.625a2.93 2.93 0 0 0 2.359 2.04c1.315.214 2.424-.386 3.39-1.206a4.788 4.788 0 0 1 3.218-1.3c1.8-.054 4.499.58 5.639 2.045.92 1.175.965 2.79.97 4.284v4.119c0 1.22 0 2.5.57 3.574.57 1.075 1.824 1.914 2.998 1.545 1.38-.44 2-2.27 3.395-2.6 1.06-.23 2.144.56 2.604 1.525z"/><path id="n7twbQ" d="M1259.462 3354.831a6.32 6.32 0 0 1-1.4 2.26l-5.428 6.523c-2.284 2.744-4.699 5.923-4.499 9.427.165-3.214 2.405-6.138 4.5-8.688l5.428-6.523a6.319 6.319 0 0 0 1.4-2.26c.135-.59.184-1.198.144-1.804-.008.36-.056.717-.145 1.065z"/><path id="n7twbR" d="M1245.306 3371.941a3.847 3.847 0 0 1-.165-.88c-.045.546.01 1.095.165 1.62.37 1.19 1.725 2.175 2.87 1.665a6.996 6.996 0 0 1-.06-.72c-1.14.455-2.46-.515-2.81-1.685z"/><path id="n7twbS" d="M1190.666 3602.504s1.72 3 7.948.36"/><path id="n7twbT" d="M1243.307 3603.234s5.368 6.323 12.136 2.074"/><path id="n7twbU" d="M1258.932 3528.46s-3.794 2.368-3.914 3.723c-.12 1.355 1.96-1 1.96-1z"/><path id="n7twbV" d="M1260.432 3546.634a7.932 7.932 0 0 1-4.674 1.825c-2.839.125-2.599 3.824-.744 2.714 1.854-1.11 5.418-4.539 5.418-4.539z"/><path id="n7twbW" d="M1261.152 3549.009s-1.82 8.942-3.3 7.218"/><path id="n7twbX" d="M993.69 3445.032l-.026-.09-.23.135-.095.055-.045.03-3.879-13.692a22.734 22.734 0 0 1-.285-11.262l3-13.136v-3.16l9.532 25.404c.61 3.424-5.054 11.717-7.973 15.716zm-84.053 170.998s11.422 3.135 16.92-1.034c5.499-4.17 7.883-2.83 7.883-2.83s13.112-.724 14.191-3.823c1.08-3.1-5.028-14.357-5.028-14.357-.435-1-1.07-2.269-1.355-2.269l.06-4.749 1.9-19.87c4.383-11.241.08-25.767.08-25.767l-.785-3.604a9.118 9.118 0 0 1 .744-5.999l7.963-15.995a23.94 23.94 0 0 1 1.5-3.07 78.09 78.09 0 0 1 2-3.399c.244-.39.5-.794.78-1.22.964-1.499 2.134-3.198 3.548-5.158 3.524-4.884 5.379-10.997 6.338-15.496l.425 1.41h.095l.115.025h.19l.205.035h.075l2.45 31.171c.15 12.157 4.613 18.885 4.613 18.885l-.615 26.838c.84 6.463-1 15.081-1.844 18.52l-1.93 4.354a5.233 5.233 0 0 0-2.844 3.959c-.38 3.214-3.764 10.142-3.764 10.142-1.31 1.66-4.154 6.143-4.154 6.143s-1.34 4.33-.51 5.949c.83 1.62 7.768 1.454 7.768 1.454 7.923 1.755 13.997-2.499 13.612-5.428-.385-2.93 1.234-3.674 1.234-3.674 3.15-1 2.845-3.134 2.845-3.134a19.615 19.615 0 0 0-2.385-12.767l-.5 1.155a17.58 17.58 0 0 1 .95-6.813l-.29.2-.09.055h-.03c.5-4.384 5.104-12.497 5.104-12.497 8.458-14.836 5.383-34.94 5.383-34.94l-1.31-6.269-.074-2.364a78.914 78.914 0 0 1 1.274-16.846c.455-2.459.925-5.428 1.285-8.702.76-6.918 3.21-14.057 4.339-17.08l.335-.06h.04c.46-.08.925-.16 1.394-.25h.09s.27-1.46.5-3.945a70.02 70.02 0 0 0 .245-5.903 66.419 66.419 0 0 0-3.154-20.55l.255-.364s.605-.82 1.71-2.24c2.029-2.579 5.188-6.498 9.082-10.917 6.973-7.953 4.924-15.995 4.924-15.995s-5.049-18.5-7.298-29.607c-1.285-6.329-3.694-10.633-5.539-13.172.416-1.75.65-3.54.7-5.338.15-3.29.035-6.719-1.445-9.673-1.48-2.954-4.628-5.288-7.917-4.894a3.03 3.03 0 0 1-1.42 0 2.16 2.16 0 0 1-.935-.814c-1.924-2.655-2.05-6.224-1.45-9.443.6-3.219 1.83-6.298 2.38-9.527.55-3.23.3-6.813-1.755-9.373-2.414-2.999-6.623-3.844-9.762-6.098-2.204-1.585-3.859-3.859-6.183-5.264-2.325-1.404-4.499-.87-7.023-.34-4.244.895-8.278 1.305-12.292 3.13a32.736 32.736 0 0 0-10.712 7.793 10.167 10.167 0 0 0-2.39 3.769c-1 3.304.955 6.823.545 10.242-.29 2.424-1.72 4.534-2.854 6.698-1.135 2.164-2 4.734-1.11 6.998 1.4 3.54 5.964 4.289 9.283 6.173.443.217.822.547 1.1.955.82 1.43-.855 2.914-1.91 4.184a6.304 6.304 0 0 0-1.25 2.54 9.057 9.057 0 0 0-5.433 6.558c-1.125 5.033.605 11.386 2.13 15.585-1.665 9.353.5 13.042 2.094 14.456a8.023 8.023 0 0 1 2.78 5.469v.175c.104 1.7.284 3.394.524 5.084-.055-.395-.11-.815-.14-1-1.305 2.414-3.789 8.583-5.189 18.96a56.985 56.985 0 0 1-1.264 6.603 36.11 36.11 0 0 0-1.06 11.807l.25 3.364a1.06 1.06 0 0 1-.68-.225l1.755 3.214v5.424a19.994 19.994 0 0 1-1.33 7.153c-.125.33-.26.66-.405 1a5.818 5.818 0 0 0-.59 2.944c-3.774 5.783-12.426 38.194-12.426 38.194-4.694 10.627.385 17.495.385 17.495s2.459 29.587 2.919 31.117c.46 1.53 1.48 19.565 1.48 19.565v1.434a3.365 3.365 0 0 0-.855-.245c-4.114-.23-5.229 6.269-5.229 6.269l-8.418 8.038s-3.844-.65-9.497 3.594c-5.654 4.243 3.654 8.112 3.654 8.112z"/><path id="n7twbZ" d="M997.873 3486.356s-3.849 9.362-4.829 18.345c-.355 3.239-.815 6.168-1.264 8.597a78.572 78.572 0 0 0-1.23 16.63l.075 2.335 1.25 6.183s2.999 19.86-5.284 34.491c0 0-4.909 8.763-5.059 12.912l-3.324 1.284-6.718-1.884s3.244-11.632 2.19-19.785l.604-26.493s-4.363-6.628-4.513-18.625l-2.565-32.92z"/><path id="n7twca" d="M967.206 3481.667s-.824 12.836-7.173 21.684c-6.348 8.848-7.698 12.686-7.698 12.686l-7.818 15.806a9.053 9.053 0 0 0-.734 5.914l.77 3.559s4.228 14.346-.076 25.448l-2.039 21.444h-11.927s-1-17.82-1.434-19.33c-.435-1.51-2.87-30.731-2.87-30.731s-4.998-6.799-.38-17.29c0 0 10.423-39.265 13.212-38.585 2.79.68 28.167-.605 28.167-.605z"/><path id="n7twcb" d="M943.343 3541.34l-.765-3.558a8.998 8.998 0 0 1 .73-5.939l7.818-15.82s1.354-3.85 7.698-12.687c6.093-8.498 7.098-20.674 7.168-21.61l1.214-.06s-.825 12.837-7.173 21.685c-6.348 8.847-7.698 12.686-7.698 12.686l-7.818 15.806a9.053 9.053 0 0 0-.734 5.914l.77 3.559s4.228 14.346-.076 25.448l-2.039 21.444h-1.21l2.04-21.444c4.304-11.102.075-25.423.075-25.423z"/><path id="n7twcc" d="M980.343 3585.864c.15-4.15 5.058-12.912 5.058-12.912 8.308-14.646 5.284-34.49 5.284-34.49l-1.28-6.189-.075-2.334a78.57 78.57 0 0 1 1.23-16.63c.445-2.43.905-5.36 1.26-8.598.944-8.648 4.548-17.646 4.813-18.306l1.24-.05s-3.849 9.363-4.829 18.346c-.355 3.239-.814 6.168-1.264 8.597a78.572 78.572 0 0 0-1.23 16.63l.075 2.335 1.25 6.183s2.999 19.86-5.284 34.491c0 0-4.909 8.763-5.059 12.912l-3.324 1.284-.7-.195z"/><path id="n7twcd" d="M976.494 3585.714c1.829.724 3.9.468 5.498-.68a17.745 17.745 0 0 0-.45 9.967c1.36 5.439-12.686-4.379-12.686-4.379l2.999-6.853s1.165 2.17 4.639 1.945z"/><path id="n7twce" d="M977.538 3586.019a5.614 5.614 0 0 0 4.464-1 17.745 17.745 0 0 0-.45 9.967c1.36 5.439-12.686-4.379-12.686-4.379l2.999-6.853s.87 1.67 3.424 1.93c.775.09 1.515.195 2.25.335z"/><path id="n7twcf" d="M944.627 3458.683h5.869v-33.296l-4.404-.79z"/><path id="n7twcg" d="M973.17 3588.283s3.699-.23 5.358 3.094l2.04 1.585 1-2.34a19.495 19.495 0 0 1 2.309 12.612s.3 2.11-2.794 3.094c0 0-1.585.755-1.21 3.624.375 2.87-5.584 7.098-13.362 5.359 0 0-6.798.155-7.627-1.435-.83-1.59.53-5.813.53-5.813s2.794-4.43 4.073-6.064c0 0 3.324-6.848 3.704-9.997.38-3.15 4.014-5.459 5.979-3.72z"/><path id="n7twch" d="M942.553 3591.077l.06-4.694s-6.753 1.945-12.222-.254c0 0 .46 4.718-.3 5.363-.76.645 2.53 6.718 2.53 6.718l3.674 3.85 6.318-2.3 1.714-5.399s-1.324-3.284-1.774-3.284z"/><path id="n7twci" d="M929.676 3589.378s3.59.415 3.135 4.998c-.455 4.584.19 0 .19 0s3.813 1.545 5.173 3.7c1.36 2.154 3.814-1.925 3.999-3.095.185-1.17 1.715-1.654 1.715-1.654s5.998 11.122 4.938 14.18c-1.06 3.06-13.936 3.765-13.936 3.765s-2.344-1.32-7.743 2.794c-5.398 4.114-16.61 1-16.61 1s-9.138-3.814-3.584-7.998c5.553-4.184 9.322-3.55 9.322-3.55l8.268-7.967s1.094-6.403 5.133-6.173z"/><path id="n7twcj" d="M972.54 3326.444c2.284 1.384 3.909 3.634 6.073 5.198 3.08 2.225 7.213 3.054 9.583 6.024 2 2.529 2.259 6.063 1.72 9.252-.54 3.19-1.75 6.234-2.335 9.413-.585 3.179-.465 6.703 1.424 9.322.22.352.538.632.915.805a3 3 0 0 0 1.395 0c3.229-.39 6.328 1.92 7.778 4.834 1.45 2.914 1.564 6.303 1.414 9.552-.125 2.664-.425 5.384-1.594 7.783-2 4.079-6.159 6.598-10.263 8.528a79.486 79.486 0 0 1-8.192 3.309c-1.92.65-3.944 1.234-5.939.894-3.414-.59-5.833-3.694-9.072-4.908-2.655-1-5.599-.64-8.423-.39-2.41.21-5.164.205-6.823-1.555-2.13-2.26-1.17-5.903-.08-8.812a6.273 6.273 0 0 1-4.439-10.257c1.03-1.255 2.674-2.72 1.87-4.134a2.74 2.74 0 0 0-1.08-.94c-3.254-1.86-7.738-2.604-9.108-6.093-.88-2.245-.03-4.784 1.085-6.919 1.115-2.134 2.5-4.224 2.804-6.613.4-3.379-1.5-6.853-.535-10.112.5-1.4 1.3-2.673 2.345-3.73a32.171 32.171 0 0 1 10.497-7.692c3.944-1.805 7.898-2.21 12.067-3.09 2.499-.53 4.568-1.089 6.913.33z"/><path id="n7twck" d="M950.49 3376.765s-9.562-.5-11.371 7.653c-1.81 8.153 3.924 19.83 3.924 19.83z"/><path id="n7twcl" d="M944.387 3401.029l3.624 2.869 16.91.755 10.558-7.248 10.737-18.425c-6.563-1.675-9.217-6.209-10.207-10.448a22.873 22.873 0 0 1-.21-8.727s-17.215-8.913-15.1 4.998c.289 1.708.343 3.447.159 5.169-1 8.148-8.908 6.613-8.908 6.613l-3.034 4.679-3.474 11.497z"/><path id="n7twcm" d="M960.713 3364.783c.29 1.708.344 3.447.16 5.169a15.261 15.261 0 0 0 15.15-1.42 22.873 22.873 0 0 1-.209-8.727s-17.215-8.913-15.101 4.978z"/><path id="n7twcn" d="M951.965 3355.476c0-8.423 6.828-15.251 15.251-15.251 8.423 0 15.251 6.828 15.251 15.25 0 8.424-6.828 15.252-15.25 15.252-8.424 0-15.252-6.828-15.252-15.251z"/><path id="n7twco" d="M956.43 3398.12c.37 0 .734.054 1.099.09 2 .2 10.352.65 15.11-5.034 5.324-6.359 12.412-14.211 12.702-14.531l7.213 2.179s-5.708-2.03-9.497 8.588a10.997 10.997 0 0 0 3.714 12.651 11.427 11.427 0 0 0 4.719 2 .025.025 0 0 1 0 .025v4.658l-2.95 12.997a22.529 22.529 0 0 0 .28 11.122l4.5 15.9c-.68.47-28.593 19.455-47.238 6.344.07-.57 2.374-19.23.775-28.362a63.064 63.064 0 0 1-.835-7.058v-.175a7.957 7.957 0 0 0-2.734-5.399c-1.68-1.5-3.954-5.498-1.705-16.066a38.818 38.818 0 0 1 2.5-7.613l6.253-14.13 5.763.114v.04c-.5.62-7.183 8.968-7.908 14.346-.71 5.114-1.584 6.684 8.238 7.313z"/><path id="n7twcp" d="M997.408 3383.308s5.639 4.834 7.853 15.806c2.214 10.972 7.148 29.197 7.148 29.197s2 7.953-4.834 15.806c-6.833 7.853-11.377 13.996-11.377 13.996l-4.498 6.628a5.643 5.643 0 0 1-3.24 2.29c-2.049.54-5.198.93-7.927-.565a4.619 4.619 0 0 1-2-5.834l1-2.314s-9.263 5.839-10.067 2.614c-.805-3.224 10.772-6.443 10.772-6.443s9.562-1.61 11.497-6.138c0 0 10.267-13.192 9.462-17.72l-9.917-26.578s-12.402-1.64-8.173-15.571c4.229-13.931 14.301-5.174 14.301-5.174z"/><path id="n7twcq" d="M938.11 3483.581s22.653 4.53 27.992 3.924l.574 1.915s8.598 1.924 28.038-1.16c1.27-.2 2.587-.425 3.954-.675l.455-.08s.265-1.44.474-3.894c.465-5.573.63-16.365-3.294-27.412l-3.269-10.068s-20.204 12.112-33.58 10.997c-1.195-.1-2.38-.195-3.575-.234-2.744-.105-6.998 0-9.762-2.215l-5.798 1v16.495a19.764 19.764 0 0 1-1.31 7.059c-.125.33-.255.654-.4 1a5.249 5.249 0 0 0-.5 3.348z"/><path id="n7twcr" d="M966.671 3484.286v5.134s9.898 2.214 32.447-1.915c0 0 .265-1.44.475-3.894-6.919 1.11-25.998 3.78-32.922.675z"/><path id="n7twcs" d="M938.11 3483.581s22.653 4.529 27.992 3.924l.574 1.915v-5.134c-2.579 1.07-20.994-3.369-27.667-5.034-.125.33-.255.655-.4 1a5.25 5.25 0 0 0-.5 3.33z"/><path id="n7twct" d="M993.03 3477.858l1.679 10.417c1.27-.2 2.587-.425 3.954-.675-.525-3.044-1.67-9.997-1.355-11.152l-2.114-1.81z"/><path id="n7twcu" d="M993.264 3477.633l1.68 10.422a202.63 202.63 0 0 0 3.954-.675c-.525-3.044-1.67-9.997-1.355-11.152l-2.114-1.814z"/><path id="n7twcv" d="M958.239 3457.123c-1.19-.1-2.38-.195-3.574-.235-2.67-.1-6.744 0-9.523-2.044l.97-.17c2.78 2.204 6.998 2.11 9.762 2.214 1.195.04 2.38.135 3.574.235.39.035.79.055 1.195.065-.802.022-1.605 0-2.404-.065z"/><path id="n7twcw" d="M993.5 3488.26c1.269-.2 2.587-.423 3.953-.67l.46-.085s.265-1.44.47-3.894c.47-5.573.635-16.365-3.294-27.412l-3.08-9.498c.655-.37 1-.585 1-.585l3.27 10.068c3.923 11.047 3.758 21.839 3.294 27.412-.21 2.455-.475 3.894-.475 3.894l-.455.085c-1.363.247-2.681.47-3.954.67-9.083 1.44-15.79 1.79-20.37 1.75a128.47 128.47 0 0 0 19.18-1.735z"/><path id="n7twcx" d="M964.882 3487.505v.055h-.65c.247-.016.463-.035.65-.055z"/><path id="n7twcy" d="M994.989 3478.043c0-.972.382-1.76.855-1.76.472 0 .854.788.854 1.76s-.382 1.76-.854 1.76c-.473 0-.855-.788-.855-1.76z"/><path id="n7twcz" d="M941.288 3442.412c1.38-10.247 3.814-16.335 5.099-18.72.05.325.18 1.38.24 1.705.26 1.5.03 3.39.11 5.294l-1.28 23.173 1.715 7.248c1.61 5.739-4.354 1.205-4.354 1.205-1.235 2.72-3.5 2.42-3.5 2.42l-.31-4.16a35.919 35.919 0 0 1 1.04-11.661 55.57 55.57 0 0 0 1.24-6.504z"/><path id="n7twcA" d="M998.663 3454.914c-1.085 1.405-1.68 2.21-1.68 2.21l-4.499 6.623a5.619 5.619 0 0 1-3.239 2.289c-2.05.54-5.198.935-7.928-.565a4.609 4.609 0 0 1-1.999-5.828l1-2.32s-9.263 5.839-10.068 2.62c-.804-3.22 10.773-6.444 10.773-6.444s9.562-1.61 11.496-6.143c0 0 .835-1.07 2-2.71"/><path id="n7twcB" d="M993.03 3466.016s-10.953-1.065-14.422-7.328l-1.59 5.174s11.498 7.937 14.122 6.908z"/><path id="n7twcC" d="M992.64 3465.966s-10.948-1.065-14.422-7.333l-1.584 5.159s11.497 7.937 14.116 6.908z"/><path id="n7twcD" d="M943.178 3463.092s-3.834 1.36-4.589.605l1.725 3.174 3.259-2.5z"/><path id="n7twcE" d="M966.671 3484.286v-6.623l-1.574 6.783z"/><path id="n7twcF" d="M982.202 3347.423c-.925 1.3-2.53 1.96-4.109 2.164-1.58.205-3.179.03-4.773 0-2.5-.04-5.159.345-7.203 1.815-1.305.935-2.285 2.25-3.305 3.499-3.089 3.774-7.378 7.308-12.246 6.913a3.174 3.174 0 0 1-2.275-.96 3.649 3.649 0 0 1-.58-2.07c-.209-3.11-.11-6.235.296-9.327.195-1.913.67-3.787 1.41-5.563a18.995 18.995 0 0 1 3.388-4.839 20.73 20.73 0 0 1 5.914-4.738 10.607 10.607 0 0 1 7.398-.955c2.914.795 5.183 3.074 7.962 4.249 3.175 1.334 11.602 4.898 8.123 9.812z"/><path id="n7twcG" d="M982.202 3346.818c-.925 1.3-2.53 1.96-4.109 2.165-1.58.205-3.179.03-4.773 0-2.5-.045-5.159.34-7.203 1.81-1.305.934-2.285 2.249-3.305 3.498-3.089 3.774-7.378 7.308-12.246 6.913a3.154 3.154 0 0 1-2.275-.96 3.634 3.634 0 0 1-.58-2.069c-.209-3.111-.11-6.236.295-9.327.196-1.914.67-3.788 1.41-5.564a18.865 18.865 0 0 1 3.39-4.834 20.658 20.658 0 0 1 5.913-4.743 10.607 10.607 0 0 1 7.398-.955c2.914.795 5.183 3.074 7.962 4.249 3.175 1.34 11.602 4.894 8.123 9.817z"/><path id="n7twcH" d="M946.117 3454.67l-.04 1.824-.41-1.745z"/><path id="n7twcI" d="M984.667 3387.527c-4.234 13.931 8.107 15.566 8.107 15.566l9.918 26.578c.804 4.529-9.468 17.72-9.468 17.72-.715 1.69-2.5 2.974-4.449 3.924a6.968 6.968 0 0 0 2.64-2.9s10.267-13.186 9.462-17.714l-9.917-26.583s-12.337-1.635-8.108-15.566c1.415-4.654 3.5-6.773 5.609-7.533-1.455 1.17-2.79 3.194-3.794 6.508z"/><path id="n7twcJ" d="M984.877 3400.184c.58.717 1.252 1.354 1.999 1.894a11.362 11.362 0 0 0 4.719 2v.525c-1.543-.327-3-.972-4.28-1.895a10.372 10.372 0 0 1-2.439-2.524z"/><path id="n7twcK" d="M946.527 3420.113v.175a64.56 64.56 0 0 0 .86 7.083c1.5 8.618-.465 25.729-.745 28.093-.16-.105-.32-.205-.5-.32.075-.57 2.38-19.23.78-28.357a63.336 63.336 0 0 1-.835-7.058v-.175a7.713 7.713 0 0 0-1.345-3.824 7.773 7.773 0 0 1 1.785 4.383z"/><path id="n7twcL" d="M955.73 3376.985l-4.89-.095a.025.025 0 0 0-.024 0l-6.249 14.126a38.947 38.947 0 0 0-2.499 7.613c-1.82 8.548-.675 12.807.715 14.911-1.565-1.844-3.18-6.048-1.165-15.496a38.534 38.534 0 0 1 2.475-7.618l6.293-14.126 5.763.115v.035c-.045.06-.2.25-.42.535z"/><path id="n7twcM" d="M992.57 3380.819l.084.025z"/><path id="n7twcN" d="M990.775 3380.739l-4.899-1.475h-.025c-.29.32-7.373 8.173-12.696 14.532-4.759 5.683-13.102 5.238-15.111 5.038-.365-.04-.735-.07-1.1-.095-5.463-.35-7.613-1-8.333-2.38 1.025 1 3.28 1.5 7.878 1.78.37 0 .735.055 1.1.09 2 .2 10.352.645 15.11-5.033 5.324-6.364 12.412-14.217 12.702-14.536l7.128 2.159a4.453 4.453 0 0 0-1.754-.08z"/><path id="n7twcO" d="M932.776 3596.64s-6.899 1.885-8.233-1.074"/><path id="n7twcP" d="M976.569 3595.226s-7.998 2.065-9.848-1.13"/><path id="n7twcQ" d="M1091.897 3590.752c.115-1 .28-2 .46-2.999.79-4.319-.414-8.438-1-10.137-.184-.525-.32-.82-.32-.82-3.183-.87-15.735 8.868-20.309 12.537-1.584 0-3.304.07-5.183.195-.82.06-1.64.08-2.46.065h-2.999c-4.244-3.42-17.38-13.702-20.65-12.812 0 0-.134.295-.32.82-.61 1.7-1.814 5.818-1.024 10.137.18 1 .345 2 .46 3 .245 2.194 1.165 6.408 4.499 9.252.715 5.198 3.389 12.032 5.448 16.18.154.784.389 1.55.7 2.285-.85 3.279-1.83 7.558-1.55 8.997 0 0-4.438-1.074-4.888 4.27v.164c-1.605.735-3.61 2.42-1.355 5.949.272.434.68.766 1.16.944.4.14.79.14.75-.42l2.774 3.125s5.029.58 5.089-2.34l.294.045c.675.1 1.38.185 2.105.26l.35 1.155s-3.774-.08-2.744 2.244c0 0 .95.88 1.274.56 0 0-.5 1.525 1.47 1.525 0 0 2.114 1.12 2.939.32.825-.8 2.534-2 2.694-2.5.045-.135.065-1.32.075-2.959h.325c4.214.1 8.688-.035 12.757-.255h.33c0 1.775.025 3.084.07 3.224.165.5 1.88 1.685 2.699 2.5.82.814 2.934-.32 2.934-.32 1.96 0 1.47-1.525 1.47-1.525.33.32 1.28-.56 1.28-.56 1.03-2.324-2.75-2.244-2.75-2.244l.45-1.5 2.084-.175.33-.03c-.2 3.174 5.084 2.565 5.084 2.565l2.78-3.124c-.046.56.344.56.744.42.47-.186.865-.522 1.125-.955 3.404-5.324-2.885-6.454-2.885-6.454a3.08 3.08 0 0 0-.594-.095c0-.09 0-.185.025-.275.08-.7.094-1.406.04-2.109-.235-.965-1.785-2.5-3.744-2.724-1.28-.16-1.305-6.039-1.175-10.113a11.63 11.63 0 0 0 .2-2.319 12.234 12.234 0 0 0-.5-3.714c2.5-4.239 4.499-8.683 4.724-9.997 3.294-2.87 4.214-7.068 4.458-9.263z"/><path id="n7twcS" d="M1087.059 3631.266c-.2 2.77-.735 7.213-.735 7.213s-2.224.27-5.663.58l-2.335.2c-1.79.145-3.799.285-5.923.405-3.924.215-8.233.35-12.297.25a77.444 77.444 0 0 1-5.823-.33 49.843 49.843 0 0 1-2.355-.285c-4.658-.695-7.997-2.024-8.282-4.359a13.498 13.498 0 0 1-.105-2.999c.435-5.248 4.708-4.189 4.708-4.189-.275-1.45.76-5.953 1.6-9.212.53-2.055 1-3.614 1-3.614l30.051-2h.1a1.47 1.47 0 0 1 1.47 1.545c-.18 3.604-.435 11.857 1.04 12.042 1.89.235 3.384 1.73 3.614 2.674.043.694.02 1.39-.065 2.08z"/><path id="n7twcT" d="M1061.536 3591.707s-11.332 13.641-16.79 9.862c-.13-.09-.256-.18-.376-.274-3.669-2.78-4.633-7.259-4.888-9.533-.11-1-.27-1.964-.445-2.94-.755-4.243.4-8.282 1-9.951.18-.5.304-.805.304-.805 3.774-1.05 21.195 13.641 21.195 13.641z"/><path id="n7twcU" d="M1055.447 3592.967s-3.569 2.499-8.602 6.608a18.181 18.181 0 0 1-2.5 1.72c-3.669-2.78-4.633-7.259-4.888-9.533-.11-1-.27-1.964-.445-2.94-.755-4.243.4-8.282 1-9.951 7.058.49 15.435 14.096 15.435 14.096z"/><path id="n7twcV" d="M1051.563 3591.622s-1.904 1.345-4.593 3.53a9.67 9.67 0 0 1-1.32.914c-1.954-1.5-2.5-3.874-2.61-5.084-.054-.53-.14-1.05-.234-1.574a10.927 10.927 0 0 1 .555-5.309c3.734.26 8.202 7.523 8.202 7.523z"/><path id="n7twcW" d="M1068.879 3591.707s11.332 13.641 16.79 9.862c.125-.09.255-.18.375-.274 3.67-2.78 4.634-7.259 4.889-9.533.11-1 .27-1.964.44-2.94.76-4.243-.4-8.282-1-9.951-.18-.5-.31-.805-.31-.805-3.764-1.05-21.184 13.641-21.184 13.641z"/><path id="n7twcX" d="M1074.962 3592.967s3.574 2.499 8.608 6.608c.776.64 1.603 1.216 2.474 1.72 3.67-2.78 4.634-7.259 4.889-9.533.11-1 .27-1.964.44-2.94.76-4.243-.4-8.282-1-9.951-7.023.49-15.41 14.096-15.41 14.096z"/><path id="n7twcY" d="M1078.876 3591.612s1.895 1.34 4.564 3.5c.41.34.85.645 1.315.909 1.944-1.475 2.459-3.85 2.594-5.054.055-.5.14-1.044.235-1.564.26-1.776.08-3.589-.525-5.279-3.74.27-8.183 7.488-8.183 7.488z"/><path id="n7twcZ" d="M1080.88 3612.936c-1.429 2.26-2.949 4.3-4.338 5.529-4.499 3.999-23.924 2.41-25.183 2.204-.265-.045-.815-.83-1.5-2.104.53-2.055 1-3.614 1-3.614z"/><path id="n7twda" d="M1065.505 3590.562c-.79.055-1.58.075-2.375.06-4.053-.07-17.71.11-19.224 5.624-1.785 6.498 6.193 23.898 7.448 24.108 1.254.21 20.674 1.785 25.188-2.204 4.514-3.99 10.387-16.496 10.072-17.63 0 0 5.599-11.807-21.11-9.958z"/><path id="n7twdb" d="M1065.075 3601.1s-9.997-1.54-14.686 8.297a11.997 11.997 0 0 0 .885 12.092c1.56 2.194 3.849 3.829 7.033 2.5 7.078-2.915 6.768-22.89 6.768-22.89z"/><path id="n7twdc" d="M1064.76 3600.47s-9.997-1.54-14.686 8.297a11.997 11.997 0 0 0 .885 12.092c1.56 2.195 3.849 3.829 7.033 2.5 7.078-2.915 6.768-22.89 6.768-22.89z"/><path id="n7twdd" d="M1064.76 3600.785s-9.997-1.54-14.686 8.297a11.997 11.997 0 0 0 .885 12.092c1.56 2.194 3.849 3.829 7.033 2.5 7.078-2.915 6.768-22.89 6.768-22.89z"/><path id="n7twde" d="M1053.978 3609.387s-1.365 1.26-.84 1.575c.525.315.84-1.575.84-1.575z"/><path id="n7twdf" d="M1055.447 3610.997s-.744 1.644-.214 1.824c.53.18.844-1.18.844-1.18z"/><path id="n7twdg" d="M1052.153 3613.481s-.73 1.94 0 1.94 0-1.94 0-1.94z"/><path id="n7twdh" d="M1051.249 3618.675s1.46 3.729 5.258 3.464"/><path id="n7twdi" d="M1054.663 3619.774s1.5 1.47 3.144.42"/><path id="n7twdj" d="M1066.354 3601.1s9.998-1.54 14.687 8.297a11.997 11.997 0 0 1-.885 12.092c-1.555 2.194-3.85 3.829-7.033 2.5-7.098-2.915-6.769-22.89-6.769-22.89z"/><path id="n7twdk" d="M1066.65 3600.47s9.997-1.54 14.685 8.297a11.997 11.997 0 0 1-.884 12.092c-1.555 2.195-3.85 3.829-7.033 2.5-7.063-2.915-6.769-22.89-6.769-22.89z"/><path id="n7twdl" d="M1066.65 3600.785s9.997-1.54 14.685 8.297a11.997 11.997 0 0 1-.884 12.092c-1.555 2.194-3.85 3.829-7.033 2.5-7.063-2.915-6.769-22.89-6.769-22.89z"/><path id="n7twdm" d="M1077.431 3609.387s1.365 1.26.84 1.575c-.525.315-.84-1.575-.84-1.575z"/><path id="n7twdn" d="M1075.962 3610.997s.745 1.644.215 1.824c-.53.18-.845-1.18-.845-1.18z"/><path id="n7twdo" d="M1079.261 3613.481s.725 1.94 0 1.94 0-1.94 0-1.94z"/><path id="n7twdp" d="M1080.16 3618.675s-1.459 3.729-5.258 3.464"/><path id="n7twdq" d="M1076.752 3619.774s-1.5 1.47-3.15.42"/><path id="n7twdr" d="M1060.956 3629.272c.265-.05 5.249-2.205 10.387 0z"/><path id="n7twds" d="M1051.928 3639.314c-4.658-.695-7.997-2.024-8.282-4.359a13.498 13.498 0 0 1-.105-2.999c.56-.3 1.158-.518 1.78-.65.844-.235 1.889-.075 4.093.555 2.204.63 2.044 3.224 2.5 6.608.047.28.052.564.014.845z"/><path id="n7twdt" d="M1045.005 3631.631s-6.058 1.11-2.779 6.339c.26.424.654.75 1.12.924.385.135.755.135.715-.415l2.679 3.07s5.348.63 4.879-2.755c-.47-3.384-.315-5.998-2.5-6.608-2.184-.61-3.259-.79-4.114-.555z"/><path id="n7twdu" d="M1046.45 3635.15s1.284 2.934 3.069.47"/><path id="n7twdv" d="M1043.5 3636.315s.665 2.78 3.185.71"/><path id="n7twdw" d="M1087.059 3631.266c-.2 2.77-.735 7.213-.735 7.213s-2.224.27-5.663.58a2.894 2.894 0 0 1 0-.58c.47-3.384.315-5.998 2.499-6.608 2.05-.555 3.094-.76 3.899-.605z"/><path id="n7twdx" d="M1087.609 3631.631s6.063 1.11 2.784 6.339a2.254 2.254 0 0 1-1.12.924c-.385.135-.76.135-.72-.415l-2.674 3.07s-5.353.63-4.878-2.755c.474-3.384.314-5.998 2.499-6.608 2.184-.61 3.269-.79 4.109-.555z"/><path id="n7twdy" d="M1086.17 3635.15s-1.29 2.934-3.07.47"/><path id="n7twdz" d="M1089.118 3636.315s-.67 2.78-3.189.71"/><path id="n7twdA" d="M1060.106 3639.914a77.478 77.478 0 0 1-5.823-.33l-1.815-6.108a3.965 3.965 0 0 1-.165-1.115 3.889 3.889 0 0 1 7.773-.025c.02 2.38.04 5.394.03 7.578z"/><path id="n7twdB" d="M1052.153 3633.476l2.14 7.208s-3.64-.08-2.645 2.204c0 0 .915.865 1.23.55 0 0-.475 1.5 1.415 1.5 0 0 2.04 1.104 2.829.315.79-.79 2.444-1.97 2.604-2.44.1-.31.07-6.338.035-10.497a3.879 3.879 0 0 0-3.884-3.849 3.884 3.884 0 0 0-3.724 5.009z"/><path id="n7twdC" d="M1055.043 3642.548s-1.59 1.5-.75 2.385"/><path id="n7twdD" d="M1054.358 3641.594s-1.47.5-1.47 1.844"/><path id="n7twdE" d="M1080.206 3632.361c0 .377-.054.753-.16 1.115l-1.695 5.783c-1.79.145-3.799.285-5.923.405 0-2.16 0-5.034.035-7.328a3.884 3.884 0 0 1 7.768.025z"/><path id="n7twdF" d="M1080.35 3633.476l-2.139 7.208s3.644-.08 2.65 2.204c0 0-.915.865-1.23.55 0 0 .47 1.5-1.42 1.5 0 0-2.04 1.104-2.829.315-.79-.79-2.44-1.97-2.6-2.44-.1-.31-.07-6.338-.034-10.497a3.879 3.879 0 0 1 3.884-3.849 3.884 3.884 0 0 1 3.719 5.009z"/><path id="n7twdG" d="M1077.466 3642.548s1.59 1.5.75 2.385"/><path id="n7twdH" d="M1078.166 3641.594s1.47.5 1.47 1.844"/><path id="n7twdI" d="M1064.765 3599.21s-7.403-.235-7.638 5.499c-.235 5.733 11.567 3.304 11.567 3.304s4.959-.665 4.094-4.15c-.865-3.483-2.67-4.338-8.023-4.653z"/><path id="n7twdJ" d="M1064.765 3598.58s-7.403-.235-7.638 5.499c-.235 5.733 11.567 3.304 11.567 3.304s4.959-.665 4.094-4.15c-.865-3.483-2.67-4.338-8.023-4.653z"/><path id="n7twdK" d="M1064.765 3598.895s-7.403-.235-7.638 5.499c-.235 5.733 11.567 3.304 11.567 3.304s4.959-.665 4.094-4.15c-.865-3.483-2.67-4.338-8.023-4.653z"/><path id="n7twdL" d="M1048.25 3627.777s2.499.89 2.999 2.595"/><path id="n7twdM" d="M1083.49 3626.518s-1.775.744-1.65 3.854"/><path id="n7twdN" d="M1048.296 3641.35c-.528-.92-.507-1.925.048-2.244.554-.319 1.433.169 1.961 1.089.53.92.508 1.924-.047 2.243-.555.318-1.433-.169-1.962-1.089z"/><path id="n7twdO" d="M1083.52 3640.712c-.551-.318-.57-1.32-.042-2.235.529-.916 1.405-1.4 1.957-1.08.553.318.572 1.32.043 2.235-.529.916-1.405 1.4-1.957 1.08z"/><path id="n7twdP" d="M882.82 3575.931c0-1.256 6.026-2.274 13.46-2.274 7.435 0 13.462 1.018 13.462 2.274s-6.027 2.275-13.462 2.275c-7.434 0-13.46-1.019-13.46-2.275z"/><path id="n7twdQ" d="M829.788 3608.188c0-1.257 6.027-2.275 13.462-2.275 7.434 0 13.461 1.018 13.461 2.275 0 1.256-6.027 2.274-13.461 2.274-7.435 0-13.462-1.018-13.462-2.274z"/><path id="n7twdR" d="M809.134 3579.33c0-1.877 8.999-3.399 20.1-3.399 11.1 0 20.1 1.522 20.1 3.4 0 1.877-9 3.398-20.1 3.398-11.101 0-20.1-1.521-20.1-3.399z"/><path id="n7twdS" d="M820.92 3573.772a5.814 5.814 0 0 1-1.919-2.89c-.245-1.15.245-2.524 1.34-2.944 1.23-.47 2.544.38 3.539 1.24.995.86 2.14 1.845 3.444 1.665a5.244 5.244 0 0 1-1.62-4.909 2 2 0 0 1 .45-1c.68-.73 1.92-.415 2.74.16 2.594 1.83 3.324 5.359 3.334 8.538.265-1.15.045-2.34.05-3.5.005-1.159.33-2.498 1.32-3.108.61-.339 1.3-.511 1.999-.5 1.17-.04 2.47.075 3.269.93 1 1.06.735 2.844-.13 3.999-.865 1.154-2.174 1.899-3.38 2.709a7.458 7.458 0 0 0-2.418 2.304c-.073.13-.134.268-.18.41h-7.303a20.213 20.213 0 0 1-4.534-3.104z"/><path id="n7twdT" d="M1301.321 3594.956c0-1.256 6.027-2.274 13.461-2.274 7.435 0 13.462 1.018 13.462 2.274s-6.027 2.275-13.462 2.275c-7.434 0-13.461-1.019-13.461-2.275z"/><path id="n7twdU" d="M1305.745 3584.384s7.678-.235 9.997-1.884c2.32-1.65 11.807-3.615 12.382-.97.575 2.644 11.542 13.141 2.869 13.211-8.673.07-20.14-1.35-22.449-2.76-2.31-1.409-2.8-7.597-2.8-7.597z"/><path id="n7twdV" d="M1331.143 3593.827c-8.668.07-20.14-1.35-22.449-2.76-1.76-1.07-2.46-4.913-2.694-6.688h-.255s.5 6.193 2.794 7.598c2.294 1.405 13.781 2.83 22.449 2.76 2.5 0 3.369-.91 3.319-2.23-.345.82-1.3 1.32-3.164 1.32z"/><linearGradient id="n7twk" x1="1040.76" x2="1040.76" y1="3573.06" y2="3277.59" gradientUnits="userSpaceOnUse"><stop offset="0" stop-color="gray" stop-opacity=".25"/><stop offset=".54" stop-color="gray" stop-opacity=".12"/><stop offset="1" stop-color="gray" stop-opacity=".1"/></linearGradient><linearGradient id="n7twam" x1="1136.03" x2="1136.03" y1="3598.79" y2="3293.47" gradientUnits="userSpaceOnUse"><stop offset="0" stop-color="gray" stop-opacity=".25"/><stop offset=".54" stop-color="gray" stop-opacity=".12"/><stop offset="1" stop-color="gray" stop-opacity=".1"/></linearGradient><linearGradient id="n7twbo" x1="1222.33" x2="1222.33" y1="3621.48" y2="3327.77" gradientUnits="userSpaceOnUse"><stop offset="0" stop-color="gray" stop-opacity=".25"/><stop offset=".54" stop-color="gray" stop-opacity=".12"/><stop offset="1" stop-color="gray" stop-opacity=".1"/></linearGradient><linearGradient id="n7twbY" x1="1024.27" x2="1024.27" y1="3617.16" y2="3322.84" gradientUnits="userSpaceOnUse"><stop offset="0" stop-color="gray" stop-opacity=".25"/><stop offset=".54" stop-color="gray" stop-opacity=".12"/><stop offset="1" stop-color="gray" stop-opacity=".1"/></linearGradient><linearGradient id="n7twcR" x1="1065.2" x2="1065.2" y1="3645.54" y2="3576.74" gradientUnits="userSpaceOnUse"><stop offset="0" stop-color="gray" stop-opacity=".25"/><stop offset=".54" stop-color="gray" stop-opacity=".12"/><stop offset="1" stop-color="gray" stop-opacity=".1"/></linearGradient></defs><g><g transform="translate(-800 -3218)"><g opacity=".1"><use fill="#f4627c" xlink:href="#n7twa"/></g><g opacity=".1"><use fill="#f4627c" xlink:href="#n7twb"/></g><g opacity=".1"><use fill="#f4627c" xlink:href="#n7twc"/></g><g opacity=".1"><use fill="#f4627c" xlink:href="#n7twd"/></g><g opacity=".1"><use fill="#f4627c" xlink:href="#n7twe"/></g><g opacity=".1"><use fill="#f4627c" xlink:href="#n7twf"/></g><g opacity=".1"><use fill="#f4627c" xlink:href="#n7twg"/></g><g opacity=".1"><use fill="#f4627c" xlink:href="#n7twh"/></g><g opacity=".1"><use fill="#f4627c" xlink:href="#n7twi"/></g><g><use fill="url(#n7twk)" xlink:href="#n7twj"/></g><g><use fill="#d38884" xlink:href="#n7twl"/></g><g><use fill="#d38884" xlink:href="#n7twm"/></g><g><use fill="#444053" xlink:href="#n7twn"/></g><g><use fill="#b07473" xlink:href="#n7two"/></g><g opacity=".1"><use xlink:href="#n7twp"/></g><g><use fill="#b07473" xlink:href="#n7twq"/></g><g opacity=".1"><use xlink:href="#n7twr"/></g><g><use fill="#d38884" xlink:href="#n7tws"/></g><g opacity=".1"><use xlink:href="#n7twt"/></g><g><use fill="#d38884" xlink:href="#n7twu"/></g><g opacity=".1"><use xlink:href="#n7twv"/></g><g><use fill="#f4627c" xlink:href="#n7tww"/></g><g><use fill="#67647e" xlink:href="#n7twx"/></g><g><use fill="#67647e" xlink:href="#n7twy"/></g><g><use fill="#67647e" xlink:href="#n7twz"/></g><g><use fill="#67647e" xlink:href="#n7twA"/></g><g><use fill="#67647e" xlink:href="#n7twB"/></g><g><use fill="#67647e" xlink:href="#n7twC"/></g><g><use fill="#67647e" xlink:href="#n7twD"/></g><g opacity=".1"><use xlink:href="#n7twE"/></g><g opacity=".1"><use xlink:href="#n7twF"/></g><g><use fill="#67647e" xlink:href="#n7twG"/></g><g opacity=".1"><use xlink:href="#n7twH"/></g><g opacity=".1"><use xlink:href="#n7twI"/></g><g><use fill="#67647e" xlink:href="#n7twJ"/></g><g opacity=".1"><use xlink:href="#n7twK"/></g><g opacity=".1"><use xlink:href="#n7twL"/></g><g opacity=".1"><use xlink:href="#n7twM"/></g><g opacity=".1"><use xlink:href="#n7twN"/></g><g opacity=".1"><use xlink:href="#n7twO"/></g><g opacity=".1"><use xlink:href="#n7twP"/></g><g opacity=".1"><use xlink:href="#n7twQ"/></g><g opacity=".1"><use xlink:href="#n7twR"/></g><g opacity=".1"><use xlink:href="#n7twS"/></g><g opacity=".1"><use xlink:href="#n7twT"/></g><g opacity=".1"><use xlink:href="#n7twU"/></g><g opacity=".1"><use xlink:href="#n7twV"/></g><g opacity=".1"><use xlink:href="#n7twW"/></g><g opacity=".1"><use xlink:href="#n7twX"/></g><g><use fill="#585268" xlink:href="#n7twY"/></g><g opacity=".1"><use xlink:href="#n7twZ"/></g><g opacity=".1"><use xlink:href="#n7twaa"/></g><g opacity=".1"><use xlink:href="#n7twab"/></g><g><use fill="#e1e7ef" xlink:href="#n7twac"/></g><g><use fill="#f4627c" xlink:href="#n7twac"/></g><g><use fill="#67647e" xlink:href="#n7twad"/></g><g opacity=".1"><use xlink:href="#n7twae"/></g><g><use fill="#e1e7ef" xlink:href="#n7twaf"/></g><g><use fill="#f4627c" xlink:href="#n7twaf"/></g><g opacity=".1"><use xlink:href="#n7twag"/></g><g><use fill="#67647e" xlink:href="#n7twah"/></g><g opacity=".1"><use xlink:href="#n7twai"/></g><g opacity=".1"><use xlink:href="#n7twaj"/></g><g opacity=".1"><use xlink:href="#n7twak"/></g><g><use fill="url(#n7twam)" xlink:href="#n7twal"/></g><g><use fill="#a27772" xlink:href="#n7twan"/></g><g opacity=".1"><use xlink:href="#n7twan"/></g><g><use fill="#cc818c" xlink:href="#n7twao"/></g><g opacity=".1"><use xlink:href="#n7twap"/></g><g opacity=".1"><use xlink:href="#n7twaq"/></g><g><use fill="#b07473" xlink:href="#n7twar"/></g><g><use fill="#cc818c" xlink:href="#n7twas"/></g><g opacity=".1"><use xlink:href="#n7twat"/></g><g><use fill="#b07473" xlink:href="#n7twau"/></g><g opacity=".1"><use xlink:href="#n7twav"/></g><g opacity=".1"><use xlink:href="#n7twaw"/></g><g><use fill="#444053" xlink:href="#n7twax"/></g><g opacity=".1"><g opacity=".1"><use xlink:href="#n7tway"/></g><g opacity=".1"><use xlink:href="#n7twaz"/></g></g><g><use fill="#585268" xlink:href="#n7twaA"/></g><g opacity=".1"><use xlink:href="#n7twaA"/></g><g opacity=".1"><use xlink:href="#n7twaB"/></g><g opacity=".1"><use xlink:href="#n7twaC"/></g><g opacity=".1"><use xlink:href="#n7twaD"/></g><g><use fill="#cc818c" xlink:href="#n7twaE"/></g><g opacity=".1"><use xlink:href="#n7twaF"/></g><g><use fill="#f4627c" xlink:href="#n7twaG"/></g><g opacity=".1"><use xlink:href="#n7twaH"/></g><g opacity=".1"><use xlink:href="#n7twaI"/></g><g opacity=".1"><use xlink:href="#n7twaJ"/></g><g><use fill="#f4627c" xlink:href="#n7twaK"/></g><g opacity=".1"><use xlink:href="#n7twaL"/></g><g><use fill="#cc818c" xlink:href="#n7twaM"/></g><g opacity=".1"><use xlink:href="#n7twaN"/></g><g><use fill="#cc818c" xlink:href="#n7twaO"/></g><g opacity=".1"><use xlink:href="#n7twaP"/></g><g><use fill="#f4627c" xlink:href="#n7twaQ"/></g><g><use fill="#f6f8fb" xlink:href="#n7twaR"/></g><g><use fill="#cc818c" xlink:href="#n7twaS"/></g><g opacity=".1"><use xlink:href="#n7twaT"/></g><g><use fill="#f4627c" xlink:href="#n7twaU"/></g><g opacity=".1"><use xlink:href="#n7twaV"/></g><g opacity=".1"><use xlink:href="#n7twaW"/></g><g opacity=".1"><use xlink:href="#n7twaX"/></g><g opacity=".1"><g opacity=".1"><use xlink:href="#n7twaY"/></g><g opacity=".1"><use xlink:href="#n7twaZ"/></g><g opacity=".1"><use xlink:href="#n7twba"/></g></g><g><use fill="#f4627c" xlink:href="#n7twbb"/></g><g opacity=".1"><use xlink:href="#n7twbc"/></g><g opacity=".1"><use xlink:href="#n7twbd"/></g><g opacity=".1"><use xlink:href="#n7twbe"/></g><g><use fill="#585268" xlink:href="#n7twbf"/></g><g opacity=".1"><use xlink:href="#n7twbg"/></g><g><use fill="#f4627c" xlink:href="#n7twbh"/></g><g opacity=".1"><use xlink:href="#n7twbi"/></g><g opacity=".1"><use xlink:href="#n7twbj"/></g><g opacity=".1"><use xlink:href="#n7twbk"/></g><g opacity=".1"><g opacity=".1"><use xlink:href="#n7twbl"/></g><g opacity=".1"><use xlink:href="#n7twbm"/></g></g><g><use fill="url(#n7twbo)" xlink:href="#n7twbn"/></g><g><use fill="#65617d" xlink:href="#n7twbp"/></g><g><use fill="#a27772" xlink:href="#n7twbq"/></g><g opacity=".1"><use xlink:href="#n7twbr"/></g><g opacity=".1"><use xlink:href="#n7twbs"/></g><g><use fill="#fbbebe" xlink:href="#n7twbt"/></g><g opacity=".1"><use xlink:href="#n7twbu"/></g><g><use fill="#fbbebe" xlink:href="#n7twbv"/></g><g opacity=".1"><use xlink:href="#n7twbw"/></g><g opacity=".1"><use xlink:href="#n7twbx"/></g><g><use fill="#f4627c" xlink:href="#n7twby"/></g><g opacity=".1"><use xlink:href="#n7twbz"/></g><g><use fill="#fbbebe" xlink:href="#n7twbA"/></g><g opacity=".05"><use xlink:href="#n7twbA"/></g><g><use fill="#fbbebe" xlink:href="#n7twbB"/></g><g opacity=".1"><use xlink:href="#n7twbC"/></g><g><use fill="#f4627c" xlink:href="#n7twbD"/></g><g opacity=".1"><use xlink:href="#n7twbE"/></g><g><use fill="#7c5c5c" xlink:href="#n7twbF"/></g><g opacity=".1"><use xlink:href="#n7twbG"/></g><g opacity=".1"><use xlink:href="#n7twbH"/></g><g opacity=".1"><use xlink:href="#n7twbI"/></g><g opacity=".1"><use xlink:href="#n7twbJ"/></g><g opacity=".1"><use xlink:href="#n7twbK"/></g><g><use fill="#f4627c" xlink:href="#n7twbL"/></g><g><use fill="#a27772" xlink:href="#n7twbM"/></g><g opacity=".1"><use xlink:href="#n7twbN"/></g><g opacity=".1"><g opacity=".1"><use xlink:href="#n7twbO"/></g><g opacity=".1"><use xlink:href="#n7twbP"/></g><g opacity=".1"><use xlink:href="#n7twbQ"/></g><g opacity=".1"><use xlink:href="#n7twbR"/></g></g><g opacity=".1"><use xlink:href="#n7twbS"/></g><g opacity=".1"><use xlink:href="#n7twbT"/></g><g opacity=".1"><use xlink:href="#n7twbU"/></g><g opacity=".1"><use xlink:href="#n7twbV"/></g><g opacity=".1"><use xlink:href="#n7twbW"/></g><g><use fill="url(#n7twbY)" xlink:href="#n7twbX"/></g><g><use fill="#fdc2cc" xlink:href="#n7twbZ"/></g><g><use fill="#fdc2cc" xlink:href="#n7twca"/></g><g opacity=".1"><g opacity=".1"><use xlink:href="#n7twcb"/></g></g><g opacity=".1"><use xlink:href="#n7twcc"/></g><g><use fill="#d39999" xlink:href="#n7twcd"/></g><g opacity=".1"><use xlink:href="#n7twce"/></g><g><use fill="#fdc2cc" xlink:href="#n7twcf"/></g><g opacity=".05"><use xlink:href="#n7twcf"/></g><g><use fill="#7e5659" xlink:href="#n7twcg"/></g><g><use fill="#d39999" xlink:href="#n7twch"/></g><g opacity=".1"><use xlink:href="#n7twch"/></g><g><use fill="#7e5659" xlink:href="#n7twci"/></g><g><use fill="#865a61" xlink:href="#n7twcj"/></g><g><use fill="#fdc2cc" xlink:href="#n7twck"/></g><g opacity=".05"><use xlink:href="#n7twck"/></g><g><use fill="#fdc2cc" xlink:href="#n7twcl"/></g><g opacity=".1"><use xlink:href="#n7twcm"/></g><g><use fill="#fdc2cc" xlink:href="#n7twcn"/></g><g><use fill="#f4627c" xlink:href="#n7twco"/></g><g><use fill="#fdc2cc" xlink:href="#n7twcp"/></g><g><use fill="#65617d" xlink:href="#n7twcq"/></g><g opacity=".1"><use xlink:href="#n7twcr"/></g><g opacity=".1"><use xlink:href="#n7twcs"/></g><g><use fill="#65617d" xlink:href="#n7twct"/></g><g opacity=".1"><use xlink:href="#n7twcu"/></g><g opacity=".05"><g opacity=".05"><use xlink:href="#n7twcv"/></g><g opacity=".05"><use xlink:href="#n7twcw"/></g><g opacity=".05"><use xlink:href="#n7twcx"/></g></g><g><use fill="#d39999" xlink:href="#n7twcy"/></g><g><use fill="#fdc2cc" xlink:href="#n7twcz"/></g><g opacity=".05"><use xlink:href="#n7twcz"/></g><g><use fill="#fdc2cc" xlink:href="#n7twcA"/></g><g><use fill="#65617d" xlink:href="#n7twcB"/></g><g opacity=".1"><use xlink:href="#n7twcC"/></g><g><use fill="#65617d" xlink:href="#n7twcD"/></g><g opacity=".1"><use xlink:href="#n7twcD"/></g><g opacity=".1"><use xlink:href="#n7twcE"/></g><g opacity=".1"><use xlink:href="#n7twcF"/></g><g><use fill="#865a61" xlink:href="#n7twcG"/></g><g><use fill="#fdc2cc" xlink:href="#n7twcH"/></g><g opacity=".05"><use xlink:href="#n7twcH"/></g><g opacity=".05"><g opacity=".05"><use xlink:href="#n7twcI"/></g></g><g opacity=".1"><g opacity=".1"><use xlink:href="#n7twcJ"/></g><g opacity=".1"><use xlink:href="#n7twcK"/></g><g opacity=".1"><use xlink:href="#n7twcL"/></g><g opacity=".1"><use xlink:href="#n7twcM"/></g><g opacity=".1"><use xlink:href="#n7twcN"/></g></g><g opacity=".1"><use xlink:href="#n7twcO"/></g><g opacity=".1"><use xlink:href="#n7twcP"/></g><g><use fill="url(#n7twcR)" xlink:href="#n7twcQ"/></g><g><use fill="#f4627c" xlink:href="#n7twcS"/></g><g><use fill="#f4627c" xlink:href="#n7twcT"/></g><g><use fill="#f4627c" xlink:href="#n7twcU"/></g><g opacity=".5"><use fill="#fff" xlink:href="#n7twcU"/></g><g opacity=".1"><use xlink:href="#n7twcV"/></g><g><use fill="#f4627c" xlink:href="#n7twcW"/></g><g><use fill="#f4627c" xlink:href="#n7twcX"/></g><g opacity=".5"><use fill="#fff" xlink:href="#n7twcX"/></g><g opacity=".1"><use xlink:href="#n7twcY"/></g><g opacity=".1"><use xlink:href="#n7twcZ"/></g><g><use fill="#f4627c" xlink:href="#n7twda"/></g><g opacity=".1"><use xlink:href="#n7twdb"/></g><g opacity=".1"><use xlink:href="#n7twdc"/></g><g><use fill="#f4627c" xlink:href="#n7twdd"/></g><g opacity=".5"><use fill="#fff" xlink:href="#n7twdd"/></g><g><use fill="#3f2b3b" xlink:href="#n7twde"/></g><g><use fill="#3f2b3b" xlink:href="#n7twdf"/></g><g><use fill="#3f2b3b" xlink:href="#n7twdg"/></g><g><use fill="#fff" fill-opacity="0" stroke="#3f2b3b" stroke-miterlimit="50" xlink:href="#n7twdh"/></g><g><use fill="#fff" fill-opacity="0" stroke="#3f2b3b" stroke-miterlimit="50" xlink:href="#n7twdi"/></g><g opacity=".1"><use xlink:href="#n7twdj"/></g><g opacity=".1"><use xlink:href="#n7twdk"/></g><g><use fill="#f4627c" xlink:href="#n7twdl"/></g><g opacity=".5"><use fill="#fff" xlink:href="#n7twdl"/></g><g><use fill="#3f2b3b" xlink:href="#n7twdm"/></g><g><use fill="#3f2b3b" xlink:href="#n7twdn"/></g><g><use fill="#3f2b3b" xlink:href="#n7twdo"/></g><g><use fill="#fff" fill-opacity="0" stroke="#3f2b3b" stroke-miterlimit="50" xlink:href="#n7twdp"/></g><g><use fill="#fff" fill-opacity="0" stroke="#3f2b3b" stroke-miterlimit="50" xlink:href="#n7twdq"/></g><g><use fill="#3f2b3b" xlink:href="#n7twdr"/></g><g opacity=".1"><use xlink:href="#n7twds"/></g><g><use fill="#f4627c" xlink:href="#n7twdt"/></g><g><use fill="#fff" fill-opacity="0" stroke="#3f2b3b" stroke-miterlimit="50" xlink:href="#n7twdu"/></g><g><use fill="#fff" fill-opacity="0" stroke="#3f2b3b" stroke-miterlimit="50" xlink:href="#n7twdv"/></g><g opacity=".1"><use xlink:href="#n7twdw"/></g><g><use fill="#f4627c" xlink:href="#n7twdx"/></g><g><use fill="#fff" fill-opacity="0" stroke="#3f2b3b" stroke-miterlimit="50" xlink:href="#n7twdy"/></g><g><use fill="#fff" fill-opacity="0" stroke="#3f2b3b" stroke-miterlimit="50" xlink:href="#n7twdz"/></g><g opacity=".1"><use xlink:href="#n7twdA"/></g><g><use fill="#f4627c" xlink:href="#n7twdB"/></g><g><use fill="#fff" fill-opacity="0" stroke="#3f2b3b" stroke-miterlimit="50" xlink:href="#n7twdC"/></g><g><use fill="#fff" fill-opacity="0" stroke="#3f2b3b" stroke-miterlimit="50" xlink:href="#n7twdD"/></g><g opacity=".1"><use xlink:href="#n7twdE"/></g><g><use fill="#f4627c" xlink:href="#n7twdF"/></g><g><use fill="#fff" fill-opacity="0" stroke="#3f2b3b" stroke-miterlimit="50" xlink:href="#n7twdG"/></g><g><use fill="#fff" fill-opacity="0" stroke="#3f2b3b" stroke-miterlimit="50" xlink:href="#n7twdH"/></g><g opacity=".1"><use xlink:href="#n7twdI"/></g><g opacity=".1"><use xlink:href="#n7twdJ"/></g><g><use fill="#3f2b3b" xlink:href="#n7twdK"/></g><g opacity=".1"><use xlink:href="#n7twdL"/></g><g opacity=".1"><use xlink:href="#n7twdM"/></g><g><use fill="#f4627c" xlink:href="#n7twdN"/></g><g><use fill="#f4627c" xlink:href="#n7twdO"/></g><g opacity=".5"><use fill="#fff" xlink:href="#n7twdN"/></g><g opacity=".5"><use fill="#fff" xlink:href="#n7twdO"/></g><g opacity=".1"><use fill="#f4627c" xlink:href="#n7twdP"/></g><g opacity=".1"><use fill="#f4627c" xlink:href="#n7twdQ"/></g><g><use fill="#f4627c" xlink:href="#n7twdR"/></g><g><use fill="#f4627c" xlink:href="#n7twdS"/></g><g opacity=".1"><use fill="#f4627c" xlink:href="#n7twdT"/></g><g><use fill="#a8a8a8" xlink:href="#n7twdU"/></g><g opacity=".2"><use xlink:href="#n7twdV"/></g></g></g></svg>