<svg id="baby-boy" xmlns="http://www.w3.org/2000/svg" xmlns:xlink="http://www.w3.org/1999/xlink" viewBox="0 0 41.237 67.188">
  <defs>
    <style>
      .cls-1 {
        fill: url(#linear-gradient);
      }
    </style>
    <linearGradient id="linear-gradient" x1="0.5" x2="0.5" y2="1" gradientUnits="objectBoundingBox">
      <stop offset="0" stop-color="#f4627c"/>
      <stop offset="1" stop-color="#b539a8"/>
    </linearGradient>
  </defs>
  <g id="Group_54" data-name="Group 54" transform="translate(14.401 62.8)">
    <g id="Group_53" data-name="Group 53" transform="translate(0)">
      <path id="Path_286" data-name="Path 286" class="cls-1" d="M219.245,478.651a1.276,1.276,0,0,0-1.671.73,1.5,1.5,0,0,1-1.392.94h-4.695a1.5,1.5,0,0,1-1.392-.94,1.277,1.277,0,0,0-1.671-.73,1.322,1.322,0,0,0-.715,1.706,4.041,4.041,0,0,0,3.778,2.588h4.695a4.041,4.041,0,0,0,3.778-2.588A1.322,1.322,0,0,0,219.245,478.651Z" transform="translate(-207.616 -478.556)"/>
    </g>
  </g>
  <g id="Group_56" data-name="Group 56" transform="translate(0)">
    <g id="Group_55" data-name="Group 55">
      <path id="Path_287" data-name="Path 287" class="cls-1" d="M136.676,56.134a6.471,6.471,0,0,0-3.043-4.368,6.472,6.472,0,0,0,.805-.8,6.626,6.626,0,0,0,1.478-5.236,16.682,16.682,0,0,0-3.689-8.27,16.284,16.284,0,0,0-5.3-4.173A15.19,15.19,0,0,0,120.2,8.5a5.75,5.75,0,0,0,1.3-3.665A4.8,4.8,0,0,0,116.76,0h0a4.249,4.249,0,0,0-2.781.986,3.612,3.612,0,0,0-1.266,2.78,1.285,1.285,0,1,0,2.57,0,.979.979,0,0,1,.352-.774,1.718,1.718,0,0,1,1.125-.368h0a2.194,2.194,0,0,1,2.168,2.214,3.109,3.109,0,0,1-.888,2.189,2.981,2.981,0,0,1-2.143.907h0c-.031,0-.062,0-.093,0A14.935,14.935,0,0,0,101.425,23a15.177,15.177,0,0,0,3.991,10.291,16.284,16.284,0,0,0-5.3,4.173,16.684,16.684,0,0,0-3.689,8.27,6.626,6.626,0,0,0,1.478,5.236,6.464,6.464,0,0,0,.805.8,6.471,6.471,0,0,0-3.043,4.368A6.579,6.579,0,0,0,96.9,61.359l2.752,3.591a5.686,5.686,0,0,0,4.514,2.231,5.578,5.578,0,0,0,2.84-.774,5.921,5.921,0,0,0,2.442-7.232l-1.669-4.229a6.522,6.522,0,0,0-.391-.814h9.426a1.313,1.313,0,0,0,0-2.625H104.947V48.741a.64.64,0,0,1,.633-.646h21.187a.64.64,0,0,1,.633.646v2.948a6.431,6.431,0,0,0-2.834,3.257L122.9,59.175a5.921,5.921,0,0,0,2.442,7.232,5.578,5.578,0,0,0,2.84.774,5.686,5.686,0,0,0,4.514-2.231l2.752-3.591A6.577,6.577,0,0,0,136.676,56.134ZM103.995,23a12.181,12.181,0,1,1,12.179,12.436A12.324,12.324,0,0,1,103.995,23Zm1.4,32.932,1.669,4.229a3.257,3.257,0,0,1-1.343,3.978,3.113,3.113,0,0,1-4.045-.8l-2.752-3.591a3.912,3.912,0,0,1-.733-3.108,3.849,3.849,0,0,1,1.818-2.6,3.7,3.7,0,0,1,3.116-.306A3.807,3.807,0,0,1,105.4,55.927Zm21.378-13.081a1.3,1.3,0,0,0-1.285,1.312V45.47H106.865V44.158a1.285,1.285,0,1,0-2.57,0v1.588a3.278,3.278,0,0,0-1.918,2.995v1.853a3.8,3.8,0,0,1-2.521-1.339,3.966,3.966,0,0,1-.885-3.134A13.8,13.8,0,0,1,107.545,35.2a14.47,14.47,0,0,0,17.257,0,13.8,13.8,0,0,1,8.574,10.919,3.966,3.966,0,0,1-.885,3.134,3.8,3.8,0,0,1-2.521,1.339V48.741a3.278,3.278,0,0,0-1.909-2.991V44.158A1.3,1.3,0,0,0,126.775,42.846Zm6.645,16.9-2.752,3.591a3.113,3.113,0,0,1-4.045.8,3.257,3.257,0,0,1-1.343-3.978l1.669-4.229a3.807,3.807,0,0,1,2.27-2.2,3.7,3.7,0,0,1,3.116.306,3.849,3.849,0,0,1,1.818,2.6A3.913,3.913,0,0,1,133.42,59.741Z" transform="translate(-95.555)"/>
    </g>
  </g>
  <g id="Group_58" data-name="Group 58" transform="translate(25.08 51.507)">
    <g id="Group_57" data-name="Group 57">
      <path id="Path_288" data-name="Path 288" class="cls-1" d="M292.914,392.884a1.266,1.266,0,0,0-1.817,0,1.331,1.331,0,0,0,0,1.855,1.265,1.265,0,0,0,1.817,0,1.331,1.331,0,0,0,0-1.855Z" transform="translate(-290.72 -392.5)"/>
    </g>
  </g>
  <g id="Group_60" data-name="Group 60" transform="translate(16.6 27.184)">
    <g id="Group_59" data-name="Group 59" transform="translate(0)">
      <path id="Path_289" data-name="Path 289" class="cls-1" d="M232.288,207.443a1.267,1.267,0,0,0-1.807.193,2.2,2.2,0,0,1-3.471,0,1.267,1.267,0,0,0-1.807-.193,1.331,1.331,0,0,0-.189,1.846,4.739,4.739,0,0,0,7.464,0A1.331,1.331,0,0,0,232.288,207.443Z" transform="translate(-224.726 -207.151)"/>
    </g>
  </g>
  <g id="Group_62" data-name="Group 62" transform="translate(12.766 21.174)">
    <g id="Group_61" data-name="Group 61">
      <path id="Path_290" data-name="Path 290" class="cls-1" d="M199.5,162.25a2.95,2.95,0,0,0-4.228,0,1.332,1.332,0,0,0,0,1.856,1.266,1.266,0,0,0,1.817,0,.414.414,0,0,1,.594,0,1.266,1.266,0,0,0,1.817,0A1.332,1.332,0,0,0,199.5,162.25Z" transform="translate(-194.898 -161.357)"/>
    </g>
  </g>
  <g id="Group_64" data-name="Group 64" transform="translate(23.49 21.174)">
    <g id="Group_63" data-name="Group 63" transform="translate(0)">
      <path id="Path_291" data-name="Path 291" class="cls-1" d="M282.945,162.249a2.95,2.95,0,0,0-4.228,0,1.332,1.332,0,0,0,0,1.856,1.266,1.266,0,0,0,1.817,0,.414.414,0,0,1,.594,0,1.266,1.266,0,0,0,1.817,0A1.332,1.332,0,0,0,282.945,162.249Z" transform="translate(-278.34 -161.357)"/>
    </g>
  </g>
</svg>
