<svg xmlns="http://www.w3.org/2000/svg" xmlns:xlink="http://www.w3.org/1999/xlink" viewBox="0 0 64.633 66">
  <defs>
    <style>
      .cls-1 {
        fill: url(#linear-gradient);
      }
    </style>
    <linearGradient id="linear-gradient" x1="0.5" x2="0.5" y2="1" gradientUnits="objectBoundingBox">
      <stop offset="0" stop-color="#f4627c"/>
      <stop offset="1" stop-color="#b539a8"/>
    </linearGradient>
  </defs>
  <g id="group" transform="translate(0)">
    <g id="Group_20" data-name="Group 20" transform="translate(31.021 63.422)">
      <g id="Group_19" data-name="Group 19">
        <path id="Path_269" data-name="Path 269" class="cls-1" d="M247.895,492.378a1.243,1.243,0,0,0-1.785,0,1.308,1.308,0,0,0,0,1.823,1.243,1.243,0,0,0,1.785,0,1.307,1.307,0,0,0,0-1.823Z" transform="translate(-245.74 -492)"/>
      </g>
    </g>
    <g id="Group_22" data-name="Group 22" transform="translate(0 13.591)">
      <g id="Group_21" data-name="Group 21">
        <path id="Path_270" data-name="Path 270" class="cls-1" d="M57.887,134.007l-4.211-1.027v-1.706a8.55,8.55,0,0,0,3.894-7.2v-4.8a8.431,8.431,0,0,0-8.332-8.508A8.24,8.24,0,0,0,43,113.638a11.165,11.165,0,0,0-10.675-8.2h0a11.166,11.166,0,0,0-10.682,8.224,8.24,8.24,0,0,0-6.253-2.894,8.431,8.431,0,0,0-8.332,8.508v4.8a8.549,8.549,0,0,0,3.894,7.2v1.706l-4.211,1.027A8.909,8.909,0,0,0,0,142.735V151.4a1.276,1.276,0,0,0,1.262,1.289H11.357v3.867a1.276,1.276,0,0,0,1.262,1.289H26.468a1.289,1.289,0,0,0,0-2.578H20.832v-5.673a1.263,1.263,0,1,0-2.525,0v5.673H13.881v-5.816a9.348,9.348,0,0,1,7.071-9.155l6.209-1.519,3.995,9.281a1.262,1.262,0,0,0,1.155.77h0a1.262,1.262,0,0,0,1.156-.77l3.991-9.267,6.191,1.51a9.346,9.346,0,0,1,7.077,9.157V150.9a1.316,1.316,0,0,0,0,1.008v3.363h-4.4v-5.673a1.263,1.263,0,1,0-2.525,0v5.673H37.618a1.289,1.289,0,0,0,0,2.578h14.37a1.276,1.276,0,0,0,1.262-1.289v-3.867h10.12a1.276,1.276,0,0,0,1.262-1.289v-8.665A8.909,8.909,0,0,0,57.887,134.007Zm-8.649-20.662a5.876,5.876,0,0,1,5.807,5.93v.449H51.434a15.349,15.349,0,0,1-7.77-2.117A5.836,5.836,0,0,1,49.238,113.345Zm-5.807,10.523c0-.132.008-3.466.008-3.466a17.815,17.815,0,0,0,8,1.9h3.611v1.777a5.808,5.808,0,1,1-11.614,0Zm-19.686-7.088a8.586,8.586,0,1,1,17.169,0v.168l-4.685-2.811a1.244,1.244,0,0,0-1.607.283,9.455,9.455,0,0,1-7.324,3.491H23.745ZM9.588,119.594v-.319a5.794,5.794,0,0,1,11.38-1.669,15.35,15.35,0,0,1-7.77,2.117H9.588Zm0,4.485V122.3H13.2a17.814,17.814,0,0,0,8-1.9v3.68a5.808,5.808,0,1,1-11.614,0Zm1.769,25.373v.66H7.574v-5.727a1.263,1.263,0,1,0-2.525,0v5.727H2.525v-7.376a6.349,6.349,0,0,1,4.808-6.22l4-.976,2.612,6.388A12.125,12.125,0,0,0,11.357,149.451ZM15.4,138.779l-1.917-4.689c0-.031,0-.062,0-.093v-1.639a8.11,8.11,0,0,0,3.818,0v1.556c0,.024,0,.048,0,.073,0,.041,0,.081.008.121Zm4.969-.99a11.7,11.7,0,0,0-2.134.749l1.23-3.006,4,.979a6.164,6.164,0,0,1,.906.3ZM26.63,135.1a8.667,8.667,0,0,0-2.58-1.1l-4.226-1.034V131.28a8.481,8.481,0,0,0,2.609-2.656,11.333,11.333,0,0,0,4.2,4.582Zm8.834,1.914-3.152,7.32L29.155,137v-2.659a10.9,10.9,0,0,0,6.309.012Zm-3.134-4.778a8.686,8.686,0,0,1-8.584-8.766V120.49H27.3a11.922,11.922,0,0,0,8.532-3.6l5.077,3.046v3.84A8.678,8.678,0,0,1,32.329,132.238Zm5.659.992h0a11.33,11.33,0,0,0,4.225-4.584,8.485,8.485,0,0,0,2.595,2.634v1.691L40.583,134a8.669,8.669,0,0,0-2.594,1.108V133.23Zm6.246,4.564-3.992-.974a6.174,6.174,0,0,1,.929-.308l3.992-.977,1.235,3.02A11.7,11.7,0,0,0,44.235,137.793Zm3.09-3.665a1.314,1.314,0,0,0,.009-.141c0-.012,0-.024,0-.036V132.36a8.108,8.108,0,0,0,3.818,0V134c0,.023,0,.047,0,.07l-1.927,4.713Zm14.783,15.982H59.583v-5.727a1.263,1.263,0,1,0-2.525,0v5.727H53.251v-.654a12.125,12.125,0,0,0-2.581-7.516l2.62-6.406,4.011.979a6.349,6.349,0,0,1,4.808,6.22Z" transform="translate(0 -105.437)"/>
      </g>
    </g>
    <g id="Group_24" data-name="Group 24" transform="translate(26.82 29.81)">
      <g id="Group_23" data-name="Group 23">
        <path id="Path_271" data-name="Path 271" class="cls-1" d="M214.615,231.628a1.243,1.243,0,0,0-1.785,0,1.308,1.308,0,0,0,0,1.823,1.243,1.243,0,0,0,1.785,0,1.307,1.307,0,0,0,0-1.823Z" transform="translate(-212.46 -231.25)"/>
      </g>
    </g>
    <g id="Group_26" data-name="Group 26" transform="translate(35.262 29.81)">
      <g id="Group_25" data-name="Group 25">
        <path id="Path_272" data-name="Path 272" class="cls-1" d="M281.485,231.628a1.243,1.243,0,0,0-1.785,0,1.308,1.308,0,0,0,0,1.823,1.243,1.243,0,0,0,1.785,0,1.307,1.307,0,0,0,0-1.823Z" transform="translate(-279.33 -231.25)"/>
      </g>
    </g>
    <g id="Group_28" data-name="Group 28" transform="translate(29.452 34.149)">
      <g id="Group_27" data-name="Group 27">
        <path id="Path_273" data-name="Path 273" class="cls-1" d="M238.6,265.291a1.244,1.244,0,0,0-1.785,0,.944.944,0,0,1-1.354,0,1.244,1.244,0,0,0-1.785,0,1.309,1.309,0,0,0,0,1.823,3.435,3.435,0,0,0,4.924,0A1.309,1.309,0,0,0,238.6,265.291Z" transform="translate(-233.307 -264.913)"/>
      </g>
    </g>
    <g id="Group_30" data-name="Group 30" transform="translate(50.068 6.961)">
      <g id="Group_29" data-name="Group 29">
        <path id="Path_274" data-name="Path 274" class="cls-1" d="M398.748,54h-.866a1.289,1.289,0,0,0,0,2.578h.866a1.289,1.289,0,0,0,0-2.578Z" transform="translate(-396.62 -54)"/>
      </g>
    </g>
    <g id="Group_32" data-name="Group 32" transform="translate(56.193 6.961)">
      <g id="Group_31" data-name="Group 31">
        <path id="Path_275" data-name="Path 275" class="cls-1" d="M447.269,54H446.4a1.289,1.289,0,0,0,0,2.578h.866a1.289,1.289,0,0,0,0-2.578Z" transform="translate(-445.141 -54)"/>
      </g>
    </g>
    <g id="Group_34" data-name="Group 34" transform="translate(53.563 9.646)">
      <g id="Group_33" data-name="Group 33">
        <path id="Path_276" data-name="Path 276" class="cls-1" d="M425.573,74.831a1.276,1.276,0,0,0-1.262,1.289V77a1.263,1.263,0,1,0,2.525,0V76.12A1.276,1.276,0,0,0,425.573,74.831Z" transform="translate(-424.311 -74.831)"/>
      </g>
    </g>
    <g id="Group_36" data-name="Group 36" transform="translate(53.563 3.392)">
      <g id="Group_35" data-name="Group 35">
        <path id="Path_277" data-name="Path 277" class="cls-1" d="M425.573,26.31a1.276,1.276,0,0,0-1.262,1.289v.884a1.263,1.263,0,1,0,2.525,0V27.6A1.276,1.276,0,0,0,425.573,26.31Z" transform="translate(-424.311 -26.31)"/>
      </g>
    </g>
    <g id="Group_38" data-name="Group 38" transform="translate(4.979 6.961)">
      <g id="Group_37" data-name="Group 37">
        <path id="Path_278" data-name="Path 278" class="cls-1" d="M41.572,54h-.866a1.289,1.289,0,0,0,0,2.578h.866a1.289,1.289,0,0,0,0-2.578Z" transform="translate(-39.444 -54)"/>
      </g>
    </g>
    <g id="Group_40" data-name="Group 40" transform="translate(11.104 6.961)">
      <g id="Group_39" data-name="Group 39">
        <path id="Path_279" data-name="Path 279" class="cls-1" d="M90.093,54h-.866a1.289,1.289,0,0,0,0,2.578h.866a1.289,1.289,0,0,0,0-2.578Z" transform="translate(-87.965 -54)"/>
      </g>
    </g>
    <g id="Group_42" data-name="Group 42" transform="translate(8.475 9.646)">
      <g id="Group_41" data-name="Group 41">
        <path id="Path_280" data-name="Path 280" class="cls-1" d="M68.4,74.831a1.276,1.276,0,0,0-1.262,1.289V77a1.263,1.263,0,1,0,2.525,0V76.12A1.276,1.276,0,0,0,68.4,74.831Z" transform="translate(-67.134 -74.831)"/>
      </g>
    </g>
    <g id="Group_44" data-name="Group 44" transform="translate(8.475 3.392)">
      <g id="Group_43" data-name="Group 43">
        <path id="Path_281" data-name="Path 281" class="cls-1" d="M68.4,26.31A1.276,1.276,0,0,0,67.134,27.6v.884a1.263,1.263,0,1,0,2.525,0V27.6A1.276,1.276,0,0,0,68.4,26.31Z" transform="translate(-67.134 -26.31)"/>
      </g>
    </g>
    <g id="Group_46" data-name="Group 46" transform="translate(31.054 4.91)">
      <g id="Group_45" data-name="Group 45">
        <path id="Path_282" data-name="Path 282" class="cls-1" d="M247.262,38.087A1.276,1.276,0,0,0,246,39.376v3.392a1.263,1.263,0,1,0,2.525,0V39.376A1.276,1.276,0,0,0,247.262,38.087Z" transform="translate(-246 -38.087)"/>
      </g>
    </g>
    <g id="Group_48" data-name="Group 48" transform="translate(31.054)">
      <g id="Group_47" data-name="Group 47">
        <path id="Path_283" data-name="Path 283" class="cls-1" d="M248.155.378a1.243,1.243,0,0,0-1.785,0,1.308,1.308,0,0,0,0,1.823,1.243,1.243,0,0,0,1.785,0,1.307,1.307,0,0,0,0-1.823Z" transform="translate(-246)"/>
      </g>
    </g>
    <g id="Group_50" data-name="Group 50" transform="translate(23.89 2.908)">
      <g id="Group_49" data-name="Group 49">
        <path id="Path_284" data-name="Path 284" class="cls-1" d="M193.252,24.82,191.4,22.934a1.244,1.244,0,0,0-1.785,0,1.309,1.309,0,0,0,0,1.823l1.847,1.886a1.244,1.244,0,0,0,1.785,0A1.309,1.309,0,0,0,193.252,24.82Z" transform="translate(-189.249 -22.556)"/>
      </g>
    </g>
    <g id="Group_52" data-name="Group 52" transform="translate(36.309 2.837)">
      <g id="Group_51" data-name="Group 51">
        <path id="Path_285" data-name="Path 285" class="cls-1" d="M291.689,22.384a1.244,1.244,0,0,0-1.785,0l-1.909,1.949a1.309,1.309,0,0,0,0,1.823,1.244,1.244,0,0,0,1.785,0l1.909-1.949A1.309,1.309,0,0,0,291.689,22.384Z" transform="translate(-287.625 -22.006)"/>
      </g>
    </g>
  </g>
</svg>
