<svg xmlns="http://www.w3.org/2000/svg" xmlns:xlink="http://www.w3.org/1999/xlink" viewBox="0 0 74.425 56.348">
  <defs>
    <style>
      .cls-1 {
        fill: url(#linear-gradient);
      }
    </style>
    <linearGradient id="linear-gradient" x1="-0.94" y1="1.368" x2="1" y2="0.311" gradientUnits="objectBoundingBox">
      <stop offset="0" stop-color="#f4627c"/>
      <stop offset="1" stop-color="#b539a8"/>
    </linearGradient>
  </defs>
  <g id="heart" transform="translate(0 0)">
    <path id="Path_264" data-name="Path 264" class="cls-1" d="M270.535,35.836c-2.144,0-3.394-.795-5.286-2-.86-.547-2.187-1.419-3.622-2.464-5.676-4.134-7.446-6.888-8.285-8.6a16.91,16.91,0,0,1-1.377-10.886,14.651,14.651,0,0,1,5.847-9.1A12.653,12.653,0,0,1,265.069.5a13.326,13.326,0,0,1,3.116.375,11.561,11.561,0,0,1,2.351.839,11.544,11.544,0,0,1,2.35-.839A13.327,13.327,0,0,1,276,.5a12.651,12.651,0,0,1,7.256,2.289,14.649,14.649,0,0,1,5.848,9.1,16.914,16.914,0,0,1-1.378,10.887c-.838,1.712-2.609,4.466-8.285,8.6-1.434,1.044-2.761,1.916-3.622,2.464-1.891,1.2-3.142,2-5.285,2ZM265.069,3.469a9.8,9.8,0,0,0-5.619,1.774,11.693,11.693,0,0,0-4.644,7.273,13.877,13.877,0,0,0,1.136,8.931c.7,1.429,2.225,3.761,7.373,7.51,1.374,1,2.646,1.836,3.471,2.361,1.723,1.1,2.436,1.55,3.749,1.55s2.025-.454,3.749-1.55c.825-.525,2.1-1.361,3.47-2.361,5.148-3.749,6.674-6.081,7.373-7.51a13.873,13.873,0,0,0,1.136-8.931,11.694,11.694,0,0,0-4.643-7.273A9.8,9.8,0,0,0,276,3.469a10.455,10.455,0,0,0-2.449.3,8.479,8.479,0,0,0-2.3.913,1.428,1.428,0,0,1-1.433,0,8.476,8.476,0,0,0-2.3-.913,10.458,10.458,0,0,0-2.449-.3Zm0,0" transform="translate(-215.036 -0.5)"/>
    <path id="Path_265" data-name="Path 265" class="cls-1" d="M304.716,63.949c-.417,0-.481,0-2.211-1.1-.79-.5-2.007-1.3-3.321-2.258-3.42-2.491-5.594-4.651-6.46-6.421a10.839,10.839,0,0,1-.895-6.976,8.736,8.736,0,0,1,3.439-5.446,6.88,6.88,0,0,1,9.447,1.417A7.041,7.041,0,0,1,308.4,40.7a6.968,6.968,0,0,1,5.763,1.042,8.737,8.737,0,0,1,3.439,5.446,10.843,10.843,0,0,1-.894,6.976,15.1,15.1,0,0,1-3.937,4.454,1.432,1.432,0,0,1-2.046-.2,1.505,1.505,0,0,1,.2-2.089,12.257,12.257,0,0,0,3.186-3.492,7.8,7.8,0,0,0,.654-5.021,5.787,5.787,0,0,0-2.235-3.621,4.127,4.127,0,0,0-3.459-.605c-.936.226-1.432.732-2.561,1.958-.23.249-.476.517-.747.8a1.434,1.434,0,0,1-2.086,0c-.27-.285-.517-.552-.747-.8-1.13-1.226-1.626-1.733-2.561-1.958a4.129,4.129,0,0,0-3.46.605,5.788,5.788,0,0,0-2.234,3.62,7.806,7.806,0,0,0,.654,5.022c1.41,2.879,8.5,7.457,10,8.277a1.487,1.487,0,0,1,.84,1.346,1.469,1.469,0,0,1-1.454,1.484Zm0-2.969h0Zm0,0h0Zm0,0" transform="translate(-249.217 -34.55)"/>
    <path id="Path_266" data-name="Path 266" class="cls-1" d="M157.163,208.666a1.449,1.449,0,0,1-1.028-.434,1.5,1.5,0,0,1-.314-.482,1.554,1.554,0,0,1-.083-.277,1.559,1.559,0,0,1,0-.58,1.546,1.546,0,0,1,.083-.278,1.594,1.594,0,0,1,.134-.257,1.518,1.518,0,0,1,.18-.226,1.429,1.429,0,0,1,1.585-.321,1.476,1.476,0,0,1,.25.136,1.418,1.418,0,0,1,.221.184,1.528,1.528,0,0,1,.182.226,1.594,1.594,0,0,1,.134.257,1.547,1.547,0,0,1,.083.278,1.559,1.559,0,0,1,0,.58,1.555,1.555,0,0,1-.083.277,1.471,1.471,0,0,1-.316.482,1.461,1.461,0,0,1-.471.321,1.413,1.413,0,0,1-.557.113Zm0,0" transform="translate(-133.077 -175.241)"/>
    <path id="Path_267" data-name="Path 267" class="cls-1" d="M11.193,136.976H1.454A1.469,1.469,0,0,1,0,135.492V111.816a1.469,1.469,0,0,1,1.454-1.484h9.739a1.469,1.469,0,0,1,1.454,1.484v23.675A1.469,1.469,0,0,1,11.193,136.976Zm-8.286-2.969H9.739V113.3H2.907Zm0,0" transform="translate(0 -94.029)"/>
    <path id="Path_268" data-name="Path 268" class="cls-1" d="M74.422,143.91a6.314,6.314,0,0,0-6.257-6.116h-14.8a6.279,6.279,0,0,0-2.131-3.5L31.42,116.651c-4.207-3.91-13.036-3.917-18.774-3.43v-1.4a1.469,1.469,0,0,0-1.454-1.484H1.454A1.469,1.469,0,0,0,0,111.817v23.675a1.469,1.469,0,0,0,1.454,1.484h9.739a1.469,1.469,0,0,0,1.454-1.484v-3.584h2.116a28.934,28.934,0,0,1,1.145,5c1.462,8.676,6.627,13.454,14.544,13.454l37.811.01a6.052,6.052,0,0,0,4.416-1.9,6.319,6.319,0,0,0,1.743-4.563Zm-64.683-9.9H2.907V113.3H9.739ZM70.6,146.4a3.2,3.2,0,0,1-2.332,1.006l-37.812-.01c-8.123,0-10.834-5.976-11.679-10.989a41.438,41.438,0,0,0-1.033-4.783c-.283-.939-.809-2.686-2.285-2.686H12.646V116.2c4.1-.352,13.232-.7,16.827,2.652l.025.023L49.35,136.55l.047.04a3.375,3.375,0,0,1,.508,4.671,3.21,3.21,0,0,1-4.566.524l-16.61-13.756a1.434,1.434,0,0,0-2.045.218,1.506,1.506,0,0,0,.214,2.088L43.513,144.1a6.033,6.033,0,0,0,3.838,1.381,6.158,6.158,0,0,0,.691-.039,6.087,6.087,0,0,0,4.131-2.322,6.314,6.314,0,0,0,1.154-2.354H68.165A3.337,3.337,0,0,1,70.6,146.4Zm0,0" transform="translate(0 -94.03)"/>
  </g>
</svg>
